<?xml version="1.0" standalone="no"?>
<!DOCTYPE svg PUBLIC "-//W3C//DTD SVG 1.1//EN" "http://www.w3.org/Graphics/SVG/1.1/DTD/svg11.dtd" >
<svg xmlns="http://www.w3.org/2000/svg">
<metadata></metadata>
<defs>
<font id="titillium_webitalic" horiz-adv-x="1146" >
<font-face units-per-em="2048" ascent="1638" descent="-410" />
<missing-glyph horiz-adv-x="450" />
<glyph horiz-adv-x="0" />
<glyph unicode="&#xd;" horiz-adv-x="681" />
<glyph unicode=" "  horiz-adv-x="450" />
<glyph unicode="&#x09;" horiz-adv-x="450" />
<glyph unicode="&#xa0;" horiz-adv-x="450" />
<glyph unicode="!" horiz-adv-x="387" d="M121 0l51 227h156l-52 -227h-155zM229 471l217 963h158l-237 -963h-138z" />
<glyph unicode="&#x22;" horiz-adv-x="641" d="M453 954l106 467h178l-116 -467h-168z" />
<glyph unicode="#" d="M129 369l33 131h225l90 364h-225l33 131h225l94 369h139l-94 -369h318l92 369h139l-92 -369h225l-33 -131h-225l-90 -364h225l-32 -131h-226l-90 -369h-139l90 369h-317l-91 -369h-139l90 369h-225zM526 500h318l90 364h-318z" />
<glyph unicode="$" d="M195 31l24 119q117 -18 236 -31l209 530q-139 49 -201 112.5t-62 184.5q0 201 129 315.5t344 114.5q49 0 74 -2l90 228h111l-96 -240q100 -16 164 -35l22 -6l-25 -113q-104 16 -210 27l-191 -485q145 -53 202.5 -115.5t57.5 -185.5q0 -217 -132 -343t-353 -126 q-29 0 -78 4l-90 -230h-109l92 238q-84 10 -182 33zM553 958q0 -66 35 -101.5t129 -72.5l180 459h-29q-147 0 -231 -73t-84 -212zM561 113h33q154 0 239 83.5t85 237.5q0 72 -33 108t-125 72z" />
<glyph unicode="%" d="M317 12l738 1440l102 -31l-735 -1439zM320 1031q0 56 16 124q70 283 295 283q170 0 170 -166q0 -51 -17 -119q-37 -143 -113.5 -216t-182 -73t-148.5 74q-20 37 -20 93zM444 1057q0 -88 70 -88q55 0 89 45t54.5 121.5t20.5 117.5q0 78 -74 78q-98 0 -141 -160 q-18 -76 -19 -114zM680 167q0 56 16 124q70 282 295 282q172 0 172 -165q0 -51 -16 -119q-37 -143 -114 -216t-183.5 -73t-149.5 74q-20 37 -20 93zM805 193q0 -88 69 -89q55 0 89 45.5t54.5 122t20.5 115.5q0 80 -73 80q-53 0 -87 -42t-53.5 -118t-19.5 -114z" />
<glyph unicode="&#x26;" horiz-adv-x="1300" d="M154 326.5q0 181.5 99 304.5t322 207q-55 104 -55 202q0 188 104.5 293t282.5 105q293 0 293 -252q0 -156 -97 -261.5t-306 -185.5l227 -311q76 121 121 277h147q-61 -211 -182 -383l190 -242l-106 -94l-180 231q-199 -238 -473 -237q-205 0 -296 82.5t-91 264zM313 322 q0 -207 250 -207q104 0 202.5 54t168.5 150l-299 418q-178 -68 -250 -166t-72 -249zM678 1039.5q0 -117.5 59 -205.5q168 70 236.5 148.5t68.5 195.5q0 129 -141 129q-108 0 -165.5 -75t-57.5 -192.5z" />
<glyph unicode="'" horiz-adv-x="331" d="M315 954l107 467h145l-116 -467h-136z" />
<glyph unicode="(" horiz-adv-x="464" d="M166 171q0 247 48 449.5t116 358.5q141 324 252 483l47 70h145q-162 -252 -293 -578q-59 -147 -108 -347.5t-49 -352.5q0 -262 24 -451l6 -57h-145q-43 178 -43 425z" />
<glyph unicode=")" horiz-adv-x="464" d="M-12 -242q162 252 293 578q59 147 108 348t49 352q0 262 -24 451l-6 57h145q43 -178 43 -425t-48 -449.5t-116 -358.5q-141 -324 -252 -483l-47 -70h-145z" />
<glyph unicode="*" horiz-adv-x="845" d="M356 938l222 162l-218 157l62 86l219 -159l82 258l102 -33l-84 -260h267v-102h-269l82 -256l-98 -31l-86 258l-219 -162z" />
<glyph unicode="+" d="M231 444v140h387v399h142v-399h391v-140h-391v-403h-142v403h-387z" />
<glyph unicode="," horiz-adv-x="374" d="M-25 -264l201 491h170l-246 -491h-125z" />
<glyph unicode="-" horiz-adv-x="690" d="M201 477l35 141h505l-34 -141h-506z" />
<glyph unicode="." horiz-adv-x="344" d="M94 0l53 227h156l-53 -227h-156z" />
<glyph unicode="/" horiz-adv-x="858" d="M86 31l875 1417l143 -53l-875 -1415z" />
<glyph unicode="0" d="M209 373q0 252 71.5 477t219 374.5t340.5 149.5q410 0 409 -401q0 -260 -74.5 -484.5t-222 -366.5t-343 -142t-298 100t-102.5 293zM368.5 393.5q0.5 -276.5 245.5 -276.5q147 0 259 137t164.5 324.5t52.5 377.5q0 281 -252 281q-113 0 -206 -84t-149 -215 q-115 -268 -114.5 -544.5z" />
<glyph unicode="1" d="M473 1077l492 277h135l-309 -1354h-156l266 1163l-387 -213z" />
<glyph unicode="2" d="M137 0l31 129l524 440q197 164 287 270.5t90 209t-62.5 145.5t-195.5 43q-147 0 -311 -33l-60 -10l17 121q205 59 387 59q385 0 385 -297q0 -164 -111 -299q-92 -113 -262 -248l-494 -393h674l-32 -137h-867z" />
<glyph unicode="3" d="M147 49l35 117q221 -49 379 -49t268.5 88t110.5 233q0 193 -238 195h-264l31 125l266 4q109 2 214.5 88t105.5 193.5t-56.5 150.5t-158.5 43q-168 0 -346 -29l-56 -10l15 115q196 61 397 61q365 0 364 -278q0 -264 -276 -377q82 -39 122 -99.5t40 -173.5 q0 -213 -156 -339.5t-397 -126.5q-88 0 -187.5 17t-154.5 36z" />
<glyph unicode="4" d="M158 254l28 117l643 981h175l-650 -965h471l103 442h155l-102 -442h164l-33 -133h-162l-59 -258h-156l60 258h-637z" />
<glyph unicode="5" d="M143 51l39 125q229 -57 394 -57t284 118.5t119 286.5q0 186 -236 187q-63 0 -143 -21.5t-127 -42.5l-47 -22l-123 24l215 703h772l-30 -138h-644l-151 -454q186 88 323 88q350 0 351 -299q0 -242 -162 -404.5t-399 -162.5q-92 0 -201 17t-172 34z" />
<glyph unicode="6" d="M229 444q0 252 115 490q129 272 350 381q123 59 269 59q141 0 286 -31l47 -10l-47 -129q-164 33 -294 33t-214 -42t-141 -114q-109 -139 -162 -321q188 88 368.5 88t269.5 -86t89 -242q0 -244 -144 -392t-400 -148q-186 0 -289 118.5t-103 345.5zM391.5 424 q-0.5 -131 58 -219t177.5 -88q182 0 280.5 104.5t98.5 270.5q0 113 -58.5 166t-187.5 53q-76 0 -163 -20.5t-136 -41.5l-49 -20q-20 -74 -20.5 -205z" />
<glyph unicode="7" d="M299 20l784 1119l17 73h-658l33 140h815l-55 -234l-793 -1145z" />
<glyph unicode="8" d="M135 268q0 291 336 439q-88 49 -117.5 100t-29.5 129q0 174 147 306t430 132q205 0 306.5 -72.5t101.5 -202.5t-84 -236.5t-236 -155.5q104 -43 142 -107.5t38 -134.5t-17 -128t-62.5 -124t-113 -117t-177 -85t-246.5 -34q-418 0 -418 291zM305 297q0 -182 283 -182 q203 0 310.5 102t107.5 201.5t-44 139.5t-149 73h-205q-127 -37 -215 -118t-88 -216zM483 948q0 -63 35 -106t123 -78h205q106 31 199.5 105.5t93.5 181.5q-1 186 -273 186q-193 0 -288 -86t-95 -203z" />
<glyph unicode="9" d="M160 23l53 137q147 -35 316 -35t296 114.5t187 344.5q-244 -74 -379 -74q-340 0 -340 297q0 45 8 96q35 199 189.5 335t383.5 136q344 0 345 -416q0 -98 -21 -217q-55 -387 -246.5 -574t-468.5 -187q-143 0 -276 32zM451 831q0 -180 231 -180q117 0 305 49l62 17 q31 123 30 219q0 293 -239 293q-141 0 -249 -86t-132 -232q-8 -43 -8 -80z" />
<glyph unicode=":" horiz-adv-x="350" d="M96 0l54 227h155l-53 -227h-156zM252 676l53 227h156l-53 -227h-156z" />
<glyph unicode=";" horiz-adv-x="411" d="M-4 -264l201 491h170l-246 -491h-125zM291 676l53 227h156l-54 -227h-155z" />
<glyph unicode="&#x3c;" d="M217 446v136l854 415v-159l-694 -322l694 -328v-161z" />
<glyph unicode="=" d="M250 254v141h885v-141h-885zM250 633v141h885v-141h-885z" />
<glyph unicode="&#x3e;" d="M309 27v161l695 328l-695 322v159l854 -415v-136z" />
<glyph unicode="?" horiz-adv-x="847" d="M289 2l51 238h158l-54 -238h-155zM367 1262l12 124q180 51 315 52q338 -1 338 -269q0 -145 -65.5 -234t-270.5 -247q-141 -109 -159 -207l-17 -80h-145q2 68 14 127q23 125 207 267q164 129 218 197.5t54 166.5q0 139 -206 139q-111 0 -248 -28z" />
<glyph unicode="@" horiz-adv-x="1910" d="M178 228.5q0 54.5 4 125t33 189.5q119 506 377 720t717 214q195 0 335 -46.5t220 -123.5q147 -143 147 -402q0 -131 -50 -342t-125 -351t-154.5 -186t-198.5 -46q-176 0 -201 114q-229 -115 -391 -114q-82 0 -136.5 30.5t-78.5 75.5q-41 70 -41 197q0 66 18 159 q111 602 521 602q104 0 399 -51q-166 -676 -166 -788q0 -47 25.5 -63.5t83.5 -16.5q102 0 173.5 102.5t141.5 401.5q39 158 39 251t-23.5 178t-87.5 146q-141 137 -477 137q-383 0 -599 -188t-318 -610q-39 -166 -39 -297q0 -522 614 -522l279 18l-27 -135 q-197 -18 -328 -18.5t-263 38.5t-212 109q-170 145 -201 358q-10 80 -10 134.5zM791 277.5q0 -66.5 33.5 -113.5t103.5 -47q135 0 327 106q12 131 142 660q-125 29 -230 28q-145 0 -228 -119.5t-132 -351.5q-16 -96 -16 -162.5z" />
<glyph unicode="A" horiz-adv-x="1134" d="M49 0l707 1417h305l29 -1417h-156l-12 362h-531l-182 -362h-160zM457 500h467l-15 778h-61z" />
<glyph unicode="B" horiz-adv-x="1181" d="M160 0l325 1417h457q170 0 255 -65.5t85 -214t-72.5 -251t-191.5 -153.5q172 -68 172 -244q0 -223 -141.5 -356t-401.5 -133h-487zM348 137h332q162 1 254 95t92 254q0 169 -235 169h-324zM498 791h315q137 0 223 93t86 232q0 90 -48 127t-159 37h-305z" />
<glyph unicode="C" horiz-adv-x="1032" d="M229 385q0 365 168 688q82 160 224.5 262.5t322.5 102.5q135 0 291 -37l49 -10l-35 -123q-155 31 -295 31l-4 -1q-141 0 -247.5 -85t-172.5 -218q-137 -283 -137 -602q0 -139 60.5 -206.5t191.5 -67.5q156 0 287 24l47 11l-10 -129q-182 -45 -344 -45q-395 0 -396 405z " />
<glyph unicode="D" horiz-adv-x="1243" d="M160 0l327 1417h455q195 0 294 -100t99 -322q0 -285 -106 -536q-55 -131 -133 -232.5t-194 -164t-253 -62.5h-489zM350 139h322q121 0 220 86t157.5 218t90 276.5t31.5 285t-61 207t-199 66.5h-301z" />
<glyph unicode="E" horiz-adv-x="1034" d="M160 0l325 1417h791l-33 -139h-633l-112 -487h520l-33 -140h-518l-119 -512h633l-31 -139h-790z" />
<glyph unicode="F" horiz-adv-x="987" d="M160 0l327 1417h773l-33 -139h-617l-127 -559h525l-33 -137h-524l-136 -582h-155z" />
<glyph unicode="G" horiz-adv-x="1171" d="M231 381q0 403 175 717q86 154 230 247t325 93q174 0 350 -49l57 -15l-39 -119q-205 43 -389 43q-111 0 -203 -58t-153.5 -153.5t-104.5 -218.5q-84 -229 -84 -489t281 -260q90 0 211 24l37 7l106 450h-215l31 135h373l-164 -700q-181 -55 -396 -55q-428 0 -428 401z" />
<glyph unicode="H" horiz-adv-x="1277" d="M160 0l327 1417h156l-145 -633h645l145 633h158l-328 -1417h-157l149 647h-645l-150 -647h-155z" />
<glyph unicode="I" horiz-adv-x="475" d="M160 0l327 1417h156l-328 -1417h-155z" />
<glyph unicode="J" horiz-adv-x="542" d="M14 -143l25 139q127 0 170 44t82 214l270 1163h156l-271 -1175q-41 -176 -79.5 -250t-114.5 -104.5t-238 -30.5z" />
<glyph unicode="K" horiz-adv-x="1067" d="M160 0l327 1417h156l-151 -655l186 6l502 649h176l-551 -715l225 -702h-166l-200 629l-205 -6l-144 -623h-155z" />
<glyph unicode="L" horiz-adv-x="886" d="M160 0l327 1417h156l-295 -1278h557l-31 -139h-714z" />
<glyph unicode="M" horiz-adv-x="1597" d="M160 0l327 1417h265l90 -1200l655 1200h268l-327 -1417h-156l297 1278h-23l-667 -1227h-164l-94 1227h-21l-295 -1278h-155z" />
<glyph unicode="N" horiz-adv-x="1292" d="M160 0l327 1417h279l213 -1255h39l289 1255h153l-327 -1417h-269l-221 1264h-41l-293 -1264h-149z" />
<glyph unicode="O" horiz-adv-x="1286" d="M233 422q0 244 85 485.5t243 386t375 144.5q440 0 440 -424q0 -277 -87 -524.5t-246.5 -378.5t-380 -131t-325 99t-104.5 343zM395 441.5q0 -189.5 65.5 -256t214 -66.5t249.5 82q139 115 213.5 344t74.5 459q0 154 -68.5 224t-208.5 70t-235 -75q-141 -117 -223 -354.5 t-82 -427z" />
<glyph unicode="P" horiz-adv-x="1120" d="M160 0l327 1417h447q182 0 266 -83t84 -253q0 -272 -144.5 -439t-404.5 -167h-309l-111 -475h-155zM459 614h301q174 0 267 131.5t93 333.5q0 100 -48 149.5t-157 49.5h-305z" />
<glyph unicode="Q" horiz-adv-x="1286" d="M233 422q0 244 85 485.5t243 386t375 144.5q440 0 440 -424q0 -276 -87 -524t-253 -386q-41 -35 -94 -61l98 -291l-149 -49l-92 291q-72 -14 -131 -14q-225 0 -330 99t-105 343zM395 441.5q0 -189.5 65.5 -256t214 -66.5t249.5 82q139 115 213.5 344t74.5 459 q0 154 -68.5 224t-208.5 70t-235 -75q-141 -117 -223 -354.5t-82 -427z" />
<glyph unicode="R" horiz-adv-x="1155" d="M160 0l327 1417h433q186 0 277 -80t91 -281.5t-109.5 -332.5t-254.5 -172l155 -551h-157l-146 530h-336l-125 -530h-155zM471 668h301q160 0 256 112.5t96 290.5q0 115 -51 162t-170 47h-291z" />
<glyph unicode="S" horiz-adv-x="1021" d="M115 33l26 123q238 -37 395.5 -37t246.5 87t89 249q0 84 -45 123.5t-198.5 93t-225 119t-71.5 198.5q0 209 134 329t361 120q168 0 328 -43l53 -15l-26 -116q-214 37 -363 37l-3 -1q-150 0 -237 -76.5t-87 -222.5q0 -82 50 -118.5t208.5 -93t221 -122t62.5 -198.5 q0 -229 -137 -359t-371 -130q-174 0 -352 40z" />
<glyph unicode="T" horiz-adv-x="960" d="M315 1278l33 139h916l-33 -139h-381l-295 -1278h-156l295 1278h-379z" />
<glyph unicode="U" horiz-adv-x="1216" d="M231 274q0 100 23 187l221 956h158l-225 -973q-21 -81 -21 -149q0 -176 262 -176q162 0 243 75.5t118 237.5l227 985h158l-228 -985q-53 -233 -177 -342.5t-335 -109.5q-424 0 -424 294z" />
<glyph unicode="V" horiz-adv-x="1116" d="M371 1417h157l7 -1278h92l604 1278h158l-676 -1417h-324z" />
<glyph unicode="W" horiz-adv-x="1697" d="M328 0l55 1417h156l-64 -1272h53l551 1252h172l-39 -1252h54l536 1272h158l-610 -1417h-273l39 1167l-508 -1167h-280z" />
<glyph unicode="X" horiz-adv-x="1050" d="M25 0l573 711l-227 706h164l184 -590l459 590h172l-566 -715l230 -702h-162l-188 588l-465 -588h-174z" />
<glyph unicode="Y" horiz-adv-x="1009" d="M348 1417h160l166 -661l469 661h170l-600 -811l-142 -606h-149l143 618z" />
<glyph unicode="Z" horiz-adv-x="1013" d="M78 0l45 203l917 1020l13 55h-676l33 139h852l-50 -209l-917 -1020l-12 -49h680l-33 -139h-852z" />
<glyph unicode="[" horiz-adv-x="565" d="M51 -250l416 1780h399l-30 -133h-244l-354 -1514h243l-35 -133h-395z" />
<glyph unicode="\" horiz-adv-x="872" d="M385 1419l162 17l268 -1420l-160 -16z" />
<glyph unicode="]" horiz-adv-x="565" d="M-4 -248l31 133h243l355 1514h-244l35 133h395l-416 -1780h-399z" />
<glyph unicode="^" d="M238 653l380 699h138l391 -699h-164l-295 547l-287 -547h-163z" />
<glyph unicode="_" horiz-adv-x="1181" d="M61 -311l33 149h918l-35 -149h-916z" />
<glyph unicode="`" horiz-adv-x="1060" d="M573 1397l74 121l379 -191l-68 -106z" />
<glyph unicode="a" horiz-adv-x="1024" d="M182 285q0 170 54.5 339t177.5 294.5t284 125.5q125 0 342 -36l78 -15l-155 -665q-29 -115 -50 -271l-8 -53l-149 -6q29 176 37 219q-10 -18 -60.5 -70.5t-89.5 -84t-94.5 -57t-104.5 -25.5q-262 0 -262 305zM340 309.5q0 -110.5 35 -153.5t104.5 -43t152.5 66.5 t138 133.5l53 68l117 502q-141 29 -243 29h-3q-104 0 -190 -106t-125 -246t-39 -250.5z" />
<glyph unicode="b" horiz-adv-x="1021" d="M141 31l332 1439h152l-133 -581q100 100 217 139q49 16 94 16q154 0 213 -81.5t59 -231.5q0 -195 -78 -387q-90 -221 -247 -313q-90 -51 -181 -51q-172 0 -360 36zM317 139q140 -27 234 -27h3q94 0 170.5 72t115.5 176q78 213 78 334t-32 169t-128 48q-57 0 -133 -44 t-121 -89l-47 -43z" />
<glyph unicode="c" horiz-adv-x="829" d="M188 291q0 438 238 645q125 108 301 108q96 0 219 -28l37 -10l-39 -119q-128 24 -214 24h-7q-123 0 -211 -90q-166 -166 -166 -502q0 -102 49 -154t162 -52q80 0 188 22l41 8l-10 -120q-141 -43 -283.5 -43t-223.5 80.5t-81 230.5z" />
<glyph unicode="d" horiz-adv-x="1024" d="M182 279q0 180 57.5 352t178.5 292.5t276 120.5q104 0 232 -28l41 -8l108 462h154l-342 -1470h-148l39 182q-18 -27 -60 -66.5t-79 -66.5q-101 -69 -199 -69q-258 0 -258 299zM340 281q0 -168 147 -168q61 0 143.5 60t135.5 122l51 59l123 527q-133 31 -241 31h-3 q-110 0 -194 -107t-123 -248t-39 -276z" />
<glyph unicode="e" horiz-adv-x="946" d="M186 291q0 285 129 508q66 111 175.5 178t246.5 67q303 0 303 -249q0 -182 -137 -255t-436 -73h-105q-23 -78 -23 -164q0 -91 54 -140q53 -48 131 -48q145 0 299 32l51 13l-12 -121q-182 -59 -350 -59q-326 0 -326 311zM383 588h113q209 0 301 44t92 161q0 122 -155 122 h-3q-252 0 -348 -327z" />
<glyph unicode="f" horiz-adv-x="632" d="M68 -455l311 1344h-117l33 135h113l22 88q49 209 126 294t222 85q70 0 148 -21l24 -8l-28 -119q-82 14 -154 15h-1q-71 0 -111 -58q-40 -57 -74 -190l-21 -86h275l-33 -133h-271l-206 -891l-125 -455h-133z" />
<glyph unicode="g" horiz-adv-x="958" d="M37 -213q0 174 270 313q-33 33 -33 81t29 97.5t57 77.5l27 31q-141 66 -141 236t112.5 295.5t298.5 125.5q94 0 170 -24l27 -8l303 12l-31 -131h-182q35 -57 35 -141q0 -154 -115.5 -279t-316.5 -125l-68 6q-63 -82 -63 -125t39 -58t176 -32.5t210.5 -72t73.5 -168.5 q0 -158 -140.5 -268.5t-371.5 -110.5q-170 0 -268 70.5t-98 197.5zM182 -186.5q0 -69.5 57.5 -116.5t187.5 -47t234.5 63.5t104.5 171.5q0 61 -44 88t-163 41.5t-172 32.5q-82 -41 -143.5 -102.5t-61.5 -131zM391 639q0 -164 170 -164q129 0 201 87t72 177t-43 133t-151 43 t-178.5 -87t-70.5 -189z" />
<glyph unicode="h" horiz-adv-x="1021" d="M135 0l340 1470h154l-146 -626q18 23 49 56.5t118 88.5t165 55q119 0 180.5 -69.5t61.5 -176t-43 -282.5l-119 -516h-152l119 510q37 168 37 246q0 153 -135 153h-2q-100 0 -246 -149q-33 -35 -53 -60l-19 -22l-155 -678h-154z" />
<glyph unicode="i" horiz-adv-x="421" d="M135 0l236 1024h153l-237 -1024h-152zM418 1237l45 184h153l-43 -184h-155z" />
<glyph unicode="j" horiz-adv-x="421" d="M-178 -358q182 94 229 147t84 211l236 1024h153l-237 -1024q-51 -227 -114.5 -300t-301.5 -181zM420 1233l43 184h153l-41 -184h-155z" />
<glyph unicode="k" horiz-adv-x="911" d="M135 0l340 1470h154l-199 -856l131 7l371 403h178l-434 -475l194 -549h-161l-172 489l-138 -4l-110 -485h-154z" />
<glyph unicode="l" horiz-adv-x="440" d="M143 0l340 1470h152l-338 -1470h-154z" />
<glyph unicode="m" horiz-adv-x="1587" d="M135 0l236 1024h149l-37 -178q47 61 111 108q125 90 223 90q115 0 166 -63q47 -57 57 -119q18 20 52 51t124.5 81t165.5 50q119 0 179.5 -69.5t60.5 -172t-41 -286.5l-119 -516h-153l118 510q39 156 39 244q0 155 -133 155h-2q-57 0 -127.5 -46t-113.5 -93l-43 -45 q-6 -96 -35 -209l-119 -516h-154l119 510q39 156 39 246q0 153 -137 153h-2q-59 0 -138 -57t-128 -115l-48 -57l-157 -680h-152z" />
<glyph unicode="n" horiz-adv-x="1019" d="M135 0l236 1024h149l-37 -178q18 23 48 55.5t117 87.5t165 55q119 0 180.5 -69.5t61.5 -180t-41 -274.5l-121 -520h-152l119 510q39 156 39 246q0 153 -137 153h-2q-61 0 -140 -57t-128 -115l-48 -57l-157 -680h-152z" />
<glyph unicode="o" horiz-adv-x="1011" d="M186 315q0 295 146.5 512t369.5 217q354 0 355 -348q0 -190 -60.5 -352t-181.5 -263t-278 -101q-350 0 -351 335zM340 313q0 -200 197 -200q164 0 265 173t101 412q0 98 -50 155.5t-151 57.5q-160 0 -261 -179t-101 -419z" />
<glyph unicode="p" horiz-adv-x="1021" d="M31 -455l340 1479h149l-39 -182q18 23 49 56.5t118 89.5t163 56q266 0 266 -301q0 -270 -131 -505q-61 -115 -161.5 -186.5t-219.5 -71.5t-233 28l-41 10l-109 -473h-151zM319 143q131 -31 240 -31h4q111 1 196 109.5t123 247.5t38 268q0 174 -152 174q-57 0 -139 -60 t-133 -122l-54 -59z" />
<glyph unicode="q" horiz-adv-x="1019" d="M180 297q0 160 57.5 331t178.5 293.5t276 122.5q147 0 352 -36l72 -15l-332 -1435h-151l143 624q-18 -25 -59 -65.5t-78 -67.5q-101 -69 -195 -69q-131 0 -197.5 78.5t-66.5 238.5zM338 287q0 -174 154 -174q57 0 139 59t135 119l51 61l121 529q-129 31 -237 31h-3 q-110 -1 -195 -105.5t-125 -244.5t-40 -275z" />
<glyph unicode="r" horiz-adv-x="647" d="M135 0l238 1024h151l-37 -152q190 137 371 175l-41 -158q-111 -29 -297 -123l-61 -31l-170 -735h-154z" />
<glyph unicode="s" horiz-adv-x="878" d="M104 27l29 118q185 -33 308 -33h4q124 0 198 53.5t74 156.5q0 57 -39 80.5t-169 55t-193.5 77t-63.5 141.5q0 164 114.5 266t288.5 102q154 0 291 -32l47 -11l-30 -118q-192 29 -309 29h-4q-118 0 -181 -58.5t-63 -140.5q0 -49 36.5 -74t171 -59.5t197.5 -78.5t63 -149 q0 -180 -124.5 -276t-321.5 -96q-131 0 -276 36z" />
<glyph unicode="t" horiz-adv-x="651" d="M231 168q0 86 33 217l119 506h-135l35 133h133l71 303h154l-74 -303h287l-33 -133h-286l-119 -514q-25 -98 -25 -170q0 -94 103 -94l157 12l-10 -117q-104 -29 -199 -29q-2 1 -4 1q-96 0 -151.5 51t-55.5 137z" />
<glyph unicode="u" horiz-adv-x="1019" d="M201 229.5q0 110.5 41 274.5l120 520h152l-119 -510q-39 -156 -39 -246q0 -153 138 -153h2q61 0 140 57t126 115l49 57l158 680h151l-235 -1024h-150l37 178q-18 -23 -48 -55.5t-117 -87.5t-165 -55q-119 0 -180 69.5t-61 180z" />
<glyph unicode="v" horiz-adv-x="929" d="M285 1024h151l17 -893h63l445 893h157l-520 -1024h-287z" />
<glyph unicode="w" horiz-adv-x="1497" d="M281 0l14 1024h154l-19 -891h39l420 871h180l8 -871h39l402 891h155l-465 -1024h-272l-6 805l-383 -805h-266z" />
<glyph unicode="x" horiz-adv-x="858" d="M39 0l422 512l-180 512h157l137 -403l320 403h164l-428 -524l182 -500h-160l-133 395l-315 -395h-166z" />
<glyph unicode="y" horiz-adv-x="929" d="M215 -453l236 453h-140l-26 1024h151l17 -893h61l447 893h157l-747 -1477h-156z" />
<glyph unicode="z" horiz-adv-x="856" d="M78 0l24 131l697 760h-516l32 133h699l-29 -131l-698 -760h522l-31 -133h-700z" />
<glyph unicode="{" horiz-adv-x="641" d="M170 584l29 121q133 35 179 84t68 151q6 27 19 92q31 170 41 195q51 164 150.5 235.5t285.5 79.5l-24 -139q-131 -8 -193.5 -64.5t-89.5 -171.5q-2 -12 -21.5 -117.5t-23.5 -127.5q-29 -127 -83 -186.5t-165 -96.5q129 -59 129 -184q0 -37 -49 -207t-49 -228 q0 -141 182 -141l-39 -139q-295 6 -295 235q0 63 48 235.5t48 219.5q0 98 -147 154z" />
<glyph unicode="|" horiz-adv-x="638" d="M360 -455v1925h152v-1925h-152z" />
<glyph unicode="}" horiz-adv-x="638" d="M-8 -266l24 139q131 8 193.5 64.5t89.5 171.5q2 12 21.5 117.5t23.5 127.5q29 127 83 186.5t165 96.5q-129 59 -129 184q0 39 49 209t49 225q0 141 -182 142l39 139q295 -6 295 -236q0 -63 -48.5 -235t-48.5 -221q0 -96 148 -152l-29 -121q-133 -35 -179 -84t-69 -151 q-6 -27 -18 -94q-31 -168 -41 -193q-51 -164 -150.5 -235.5t-285.5 -79.5z" />
<glyph unicode="~" d="M260 557q127 109 238 109q59 0 211.5 -62.5t191.5 -62.5q74 0 178 69l35 25l21 -125q-130 -111 -236 -111q-55 0 -209.5 63.5t-192.5 63.5t-92.5 -23.5t-89.5 -47.5l-34 -25z" />
<glyph unicode="&#xa1;" horiz-adv-x="364" d="M8 -410l238 963h137l-217 -963h-158zM285 797l51 227h156l-52 -227h-155z" />
<glyph unicode="&#xa2;" d="M319 309q0 37 1.5 76t21.5 123q55 213 170 323.5t276 116.5l58 244h129l-60 -246l189 -20l-41 -135q-166 14 -240 14q-256 0 -329 -297q-20 -90 -20.5 -151.5t52 -99.5t160.5 -38l254 12l-29 -133q-117 -14 -198 -16l-58 -246h-129l56 238q-97 2 -158.5 40t-83 98 t-21.5 97z" />
<glyph unicode="&#xa3;" d="M164 0l31 133h196l133 594h-153l32 135h154l25 105q53 225 132 324.5t255 99.5q88 0 231 -27l43 -8l-33 -119q-143 16 -216.5 16t-108.5 -16t-55.5 -36.5t-38.5 -67.5q-23 -55 -58 -183l-20 -88h397l-31 -135h-397l-135 -594h282l156 35l-2 -131l-160 -37h-659z" />
<glyph unicode="&#xa4;" d="M238 170l143 143q-59 92 -59 203t59 203l-143 143l106 109l143 -146q94 59 205 59.5t203 -59.5l143 146l109 -109l-146 -145q59 -92 59.5 -201.5t-59.5 -202.5l146 -143l-109 -109l-143 146q-92 -62 -202.5 -62t-205.5 62l-143 -146zM467 516q0 -94 65.5 -159.5 t159.5 -65.5t160 65.5t66 159.5t-66 159.5t-160 65.5t-159.5 -65.5t-65.5 -159.5z" />
<glyph unicode="&#xa5;" d="M217 328l33 137h354l33 137l-8 33h-340l33 137h256l-234 582h168l231 -572l474 572h202l-489 -582h250l-31 -137h-328l-28 -35l-31 -135h348l-33 -137h-348l-76 -328h-155l75 328h-356z" />
<glyph unicode="&#xa6;" horiz-adv-x="651" d="M367 319h151v-774h-151v774zM367 705v765h151v-765h-151z" />
<glyph unicode="&#xa7;" horiz-adv-x="962" d="M68 -270l45 135q207 -29 322.5 -29t193.5 75t78 149.5t-42 99t-188.5 55.5t-206 87t-59.5 140t41 164q66 123 137 172q-41 49 -41 156q0 152 124 274.5t339 122.5q125 0 258 -24l49 -11l-37 -135q-203 29 -317.5 29t-187 -62.5t-72.5 -169.5q0 -39 13 -63.5t50 -40.5 q57 -25 166 -45q256 -49 256 -229q0 -152 -162 -336q35 -45 35 -102.5t-10 -105.5t-42 -110.5t-81 -112t-135 -83t-168 -33.5q-137 0 -303 24zM369 496q0 -57 38.5 -87t139.5 -49q129 -29 178 -55q18 14 62 98t44 137.5t-43 84t-161.5 53t-145.5 43.5q-112 -141 -112 -225z " />
<glyph unicode="&#xa8;" horiz-adv-x="1392" d="M496 1270l43 190h127l-45 -190h-125zM870 1270l41 190h127l-45 -190h-123z" />
<glyph unicode="&#xa9;" horiz-adv-x="1318" d="M326 889.5q0 236.5 153.5 397.5t387 161t386 -162t152.5 -398.5t-152.5 -397t-386 -160.5t-387 161.5t-153.5 398zM416 888.5q0 -196.5 128 -332.5t320.5 -136t321.5 136t129 332.5t-129 334t-320.5 137.5t-320.5 -137.5t-129 -334zM633 888q0 169 53 245.5t188 76.5 q78 0 156 -20l-6 -109q-80 12 -150.5 12.5t-94 -46t-23.5 -156t26.5 -159.5t96.5 -50l145 14l6 -106q-76 -25 -160 -25q-131 0 -184 77t-53 246z" />
<glyph unicode="&#xaa;" horiz-adv-x="704" d="M274 851q0 36 9 69q23 86 77 128t158 48l178 12l13 45q4 17 4 29q0 53 -82 53l-238 -14l17 98q152 31 261 31t152 -45q29 -29 29 -73t-8 -85l-66 -283q12 -25 51 -33l-26 -100q-78 0 -108.5 12.5t-49.5 40.5q-125 -53 -219 -53t-129 51q-23 33 -23 69zM414 893 q0 -51 59 -51q57 0 143 26l27 9l33 137l-154 -10q-88 -6 -104 -82q-4 -17 -4 -29z" />
<glyph unicode="&#xab;" horiz-adv-x="913" d="M164 469l29 78l436 291l-45 -158l-269 -178l181 -197l-41 -141zM553 469l29 78l436 291l-45 -158l-268 -178l180 -197l-41 -141z" />
<glyph unicode="&#xac;" d="M252 561v139h876v-460h-143v321h-733z" />
<glyph unicode="&#xad;" horiz-adv-x="690" d="M201 477l35 141h505l-34 -141h-506z" />
<glyph unicode="&#xae;" horiz-adv-x="1318" d="M326 889.5q0 236.5 153.5 397.5t387 161t386 -162t152.5 -398.5t-151.5 -397t-386 -160.5t-388 161.5t-153.5 398zM416 889.5q0 -195.5 129 -332.5t320.5 -137t320.5 136t129 332.5t-129 334t-320.5 137.5t-320.5 -137.5t-129 -333zM641 578v620h225q115 0 173.5 -45 t58.5 -136t-22.5 -135t-80.5 -69l113 -235h-127l-100 219h-123v-219h-117zM758 893h121q104 0 104 104.5t-127 104.5h-98v-209z" />
<glyph unicode="&#xaf;" horiz-adv-x="899" d="M469 1309l29 121h563l-31 -121h-561z" />
<glyph unicode="&#xb0;" d="M547 1148q0 130 80 210t210 80t209.5 -80t79.5 -210t-79.5 -209t-209.5 -79t-210 79t-80 209zM649 1149q0 -86 51.5 -138.5t136.5 -52.5t138 52.5t53 137.5t-53 138t-138 53t-136.5 -52t-51.5 -138z" />
<glyph unicode="&#xb1;" d="M211 78v139h919v-139h-919zM211 600v139h385v258h143v-258h391v-139h-391v-260h-143v260h-385z" />
<glyph unicode="&#xb2;" horiz-adv-x="573" d="M289 979l28 115l226 176q127 100 145 170q10 39 -12.5 56t-69.5 17l-178 -20l25 121q129 24 217 24q168 0 168 -118q0 -158 -195 -299l-156 -123h261l-29 -119h-430z" />
<glyph unicode="&#xb3;" horiz-adv-x="573" d="M283 979l36 115q115 -14 209.5 -14.5t114.5 83.5q4 18 4 31q0 55 -76 55h-135l27 111h133q29 0 60.5 26.5t41 62.5t-9 52.5t-67.5 16.5l-191 -15l21 115q127 20 215 20q180 1 180 -118q0 -127 -127 -207q47 -16 57 -38t10 -48.5t-8 -69.5q-51 -199 -270 -199 q-90 0 -193 17z" />
<glyph unicode="&#xb4;" horiz-adv-x="1118" d="M557 1339l467 193l14 -135l-467 -176z" />
<glyph unicode="&#xb5;" d="M88 -455l342 1479h152l-107 -455h2l-37 -159q-16 -79 -16 -142q0 -154 139 -153q61 0 140 57t128 115l48 57l157 680h152l-236 -1024h-149l37 178q-18 -23 -48 -55.5t-117 -87.5t-174 -55t-149 49l-112 -484h-152z" />
<glyph unicode="&#xb6;" horiz-adv-x="1140" d="M297 969q0 174 132 319.5t327 145.5h635l-29 -131h-141l-310 -1303h-129l310 1303h-224l-311 -1303h-131l166 680q-152 2 -223.5 84t-71.5 205z" />
<glyph unicode="&#xb7;" horiz-adv-x="348" d="M211 502l53 239h158l-53 -239h-158z" />
<glyph unicode="&#xb8;" horiz-adv-x="1619" d="M639 -418l27 105q76 -6 127 -6q84 0 104 73q10 39 -9.5 53.5t-60.5 14.5h-79l43 188h81l-26 -102h10q174 0 174 -113q0 -23 -6 -49q-39 -178 -221 -178q-88 0 -144 10z" />
<glyph unicode="&#xb9;" horiz-adv-x="573" d="M414 1475l243 143h123l-157 -639h-131l122 496l-163 -97z" />
<glyph unicode="&#xba;" horiz-adv-x="698" d="M299 928q0 53 16 119q39 162 121 232.5t221 70.5q90 0 149.5 -38t65.5 -116q4 -20 4.5 -58t-16.5 -100q-37 -164 -120 -237.5t-208 -73.5q-233 0 -233 201zM436 948q1 -98 105 -98q74 0 115.5 43t61 124t19.5 124q0 88 -104 88q-74 0 -115 -40t-61.5 -121t-20.5 -120z " />
<glyph unicode="&#xbb;" horiz-adv-x="983" d="M129 164l45 158l268 178l-180 196l41 142l291 -306l-29 -77zM586 164l45 158l268 178l-180 196l41 142l291 -306l-29 -77z" />
<glyph unicode="&#xbc;" horiz-adv-x="1216" d="M221 31l875 1417l143 -53l-874 -1415zM365 1475l243 143h123l-158 -639h-131l123 496l-164 -97zM725 98l27 113l249 428h148l-254 -420h149l58 180h119l-47 -180h55l-29 -121h-55l-25 -98h-129l23 98h-289z" />
<glyph unicode="&#xbd;" horiz-adv-x="1263" d="M221 31l875 1417l143 -53l-874 -1415zM365 1475l243 143h123l-158 -639h-131l123 496l-164 -97zM778 0l29 115l225 176q127 100 146 170q10 39 -12.5 56.5t-69.5 17.5l-178 -21l24 121q129 24 217 24q168 0 168 -118q0 -158 -194 -299l-156 -123h260l-29 -119h-430z" />
<glyph unicode="&#xbe;" horiz-adv-x="1247" d="M254 31l874 1417l144 -53l-875 -1415zM274 979l37 115q115 -14 209 -14.5t115 83.5q4 18 4 31q0 55 -76 55h-135l27 111h133q29 0 60.5 26.5t40.5 62.5t-9 52.5t-68 16.5l-190 -15l20 115q127 20 215 20q181 1 181 -118q0 -127 -127 -207q47 -16 57 -38t10 -48.5 t-8 -69.5q-51 -199 -270 -199q-90 0 -193 17zM760 98l26 113l250 428h148l-254 -420h149l58 180h118l-47 -180h56l-29 -121h-55l-25 -98h-129l23 98h-289z" />
<glyph unicode="&#xbf;" horiz-adv-x="833" d="M47 -143q0 145 65.5 234t270.5 247q141 109 160 207l16 80h146q-2 -68 -15 -127q-23 -125 -207 -267q-164 -129 -218 -197.5t-54 -166.5q0 -139 207 -139q111 0 250 26l45 10l-13 -124q-180 -51 -315 -52q-338 1 -338 269zM582 786l53 238h156l-52 -238h-157z" />
<glyph unicode="&#xc0;" horiz-adv-x="1134" d="M49 0l707 1417h305l29 -1417h-156l-12 362h-531l-182 -362h-160zM457 500h467l-15 778h-61zM668 1774l75 131l379 -193l-69 -115z" />
<glyph unicode="&#xc1;" horiz-adv-x="1134" d="M49 0l707 1417h305l29 -1417h-156l-12 362h-531l-182 -362h-160zM457 500h467l-15 778h-61zM776 1724l467 193l19 -133l-467 -176z" />
<glyph unicode="&#xc2;" horiz-adv-x="1134" d="M49 0l707 1417h305l29 -1417h-156l-12 362h-531l-182 -362h-160zM457 500h467l-15 778h-61zM621 1624l335 283h84l197 -283h-141l-111 166l-197 -166h-167z" />
<glyph unicode="&#xc3;" horiz-adv-x="1134" d="M49 0l707 1417h305l29 -1417h-156l-12 362h-531l-182 -362h-160zM457 500h467l-15 778h-61zM614 1772q137 123 215 122q55 0 159 -56t126 -56q39 0 137 69l33 25l6 -109q-129 -120 -205 -120q-47 0 -152.5 57t-129.5 57q-47 0 -150 -73l-35 -27z" />
<glyph unicode="&#xc4;" horiz-adv-x="1134" d="M49 0l707 1417h305l29 -1417h-156l-12 362h-531l-182 -362h-160zM457 500h467l-15 778h-61zM698 1667l43 191h127l-47 -191h-123zM1081 1667l45 191h127l-47 -191h-125z" />
<glyph unicode="&#xc5;" horiz-adv-x="1134" d="M49 0l684 1370q-25 33 -24.5 72t8.5 74q27 102 96.5 153t166.5 51t142 -51q31 -33 31 -76t-8 -77q-27 -94 -84 -144l29 -1372h-156l-12 362h-531l-182 -362h-160zM457 500h467l-15 778h-61zM815 1483q0 -19 16.5 -41.5t63.5 -24.5h20q102 4 125 99q2 14 2 34.5t-20.5 42 t-67.5 21.5q-110 0 -135 -98q-4 -14 -4 -33z" />
<glyph unicode="&#xc6;" horiz-adv-x="1597" d="M51 0l707 1425h1085l-31 -147l-649 4l-116 -491h532l-31 -142h-534l-119 -502h645l-31 -147h-796l84 362h-412l-184 -362h-150zM453 506h378l185 772h-180z" />
<glyph unicode="&#xc7;" horiz-adv-x="1032" d="M229 385q0 365 168 688q82 160 224.5 262.5t322.5 102.5q135 0 291 -37l49 -10l-35 -123q-158 31 -299 30.5t-247.5 -85.5t-172.5 -218q-137 -283 -137 -602q0 -139 60.5 -206.5t191.5 -67.5q156 0 287 24l47 11l-10 -129q-182 -45 -344 -45h-11l-18 -72h10 q174 0 174 -113q0 -23 -6 -49q-39 -178 -221 -178q-88 0 -143 10l-21 4l27 105q76 -6 127 -6q84 0 104 73q10 39 -9.5 53.5t-59.5 14.5h-80l37 164q-305 43 -306 399z" />
<glyph unicode="&#xc8;" horiz-adv-x="1034" d="M160 0l325 1417h791l-33 -139h-633l-112 -487h520l-33 -140h-518l-119 -512h633l-31 -139h-790zM680 1774l76 131l379 -193l-70 -115z" />
<glyph unicode="&#xc9;" horiz-adv-x="1034" d="M160 0l325 1417h791l-33 -139h-633l-112 -487h520l-33 -140h-518l-119 -512h633l-31 -139h-790zM754 1724l467 193l18 -133l-467 -176z" />
<glyph unicode="&#xca;" horiz-adv-x="1034" d="M160 0l325 1417h791l-33 -139h-633l-112 -487h520l-33 -140h-518l-119 -512h633l-31 -139h-790zM700 1620l336 283h84l197 -283h-141l-111 166l-197 -166h-168z" />
<glyph unicode="&#xcb;" horiz-adv-x="1034" d="M160 0l325 1417h791l-33 -139h-633l-112 -487h520l-33 -140h-518l-119 -512h633l-31 -139h-790zM680 1667l43 191h127l-47 -191h-123zM1063 1667l45 191h127l-47 -191h-125z" />
<glyph unicode="&#xcc;" horiz-adv-x="475" d="M160 0l327 1417h156l-328 -1417h-155zM305 1774l76 131l379 -193l-70 -115z" />
<glyph unicode="&#xcd;" horiz-adv-x="475" d="M160 0l327 1417h156l-328 -1417h-155zM471 1724l467 193l18 -133l-467 -176z" />
<glyph unicode="&#xce;" horiz-adv-x="475" d="M160 0l327 1417h156l-328 -1417h-155zM293 1620l336 283h84l196 -283h-141l-111 166l-196 -166h-168z" />
<glyph unicode="&#xcf;" horiz-adv-x="475" d="M160 0l327 1417h156l-328 -1417h-155zM354 1677l43 191h127l-47 -191h-123zM737 1677l45 191h127l-47 -191h-125z" />
<glyph unicode="&#xd0;" horiz-adv-x="1251" d="M168 0l145 633h-135l31 158h141l146 626h454q195 0 294 -100t99 -322q0 -285 -106 -536q-55 -131 -133 -232.5t-194 -164t-253 -62.5h-489zM358 139h322q121 0 220 86t157.5 218t90.5 276.5t32 285t-61.5 207t-198.5 66.5h-302l-112 -487h291l-35 -158h-291z" />
<glyph unicode="&#xd1;" horiz-adv-x="1292" d="M160 0l327 1417h279l213 -1255h39l289 1255h153l-327 -1417h-269l-221 1264h-41l-293 -1264h-149zM694 1767q137 123 215 123q55 0 158.5 -56t124.5 -56q41 0 139 69l33 25l6 -109q-129 -121 -205 -121q-47 0 -153.5 57.5t-130.5 57.5q-45 0 -148 -74l-35 -26z" />
<glyph unicode="&#xd2;" horiz-adv-x="1286" d="M233 422q0 244 85 485.5t243 386t375 144.5q440 0 440 -424q0 -277 -87 -524.5t-246.5 -378.5t-380 -131t-325 99t-104.5 343zM395 441.5q0 -189.5 65.5 -256t214 -66.5t249.5 82q139 115 213.5 344t74.5 459q0 154 -68.5 224t-208.5 70t-235 -75q-141 -117 -223 -354.5 t-82 -427zM770 1774l76 131l379 -193l-70 -115z" />
<glyph unicode="&#xd3;" horiz-adv-x="1286" d="M233 422q0 244 85 485.5t243 386t375 144.5q440 0 440 -424q0 -277 -87 -524.5t-246.5 -378.5t-380 -131t-325 99t-104.5 343zM395 441.5q0 -189.5 65.5 -256t214 -66.5t249.5 82q139 115 213.5 344t74.5 459q0 154 -68.5 224t-208.5 70t-235 -75q-141 -117 -223 -354.5 t-82 -427zM852 1724l467 193l18 -133l-467 -176z" />
<glyph unicode="&#xd4;" horiz-adv-x="1286" d="M233 422q0 244 85 485.5t243 386t375 144.5q440 0 440 -424q0 -277 -87 -524.5t-246.5 -378.5t-380 -131t-325 99t-104.5 343zM395 441.5q0 -189.5 65.5 -256t214 -66.5t249.5 82q139 115 213.5 344t74.5 459q0 154 -68.5 224t-208.5 70t-235 -75q-141 -117 -223 -354.5 t-82 -427zM711 1624l336 283h83l197 -283h-141l-111 166l-196 -166h-168z" />
<glyph unicode="&#xd5;" horiz-adv-x="1286" d="M233 422q0 244 85 485.5t243 386t375 144.5q440 0 440 -424q0 -277 -87 -524.5t-246.5 -378.5t-380 -131t-325 99t-104.5 343zM395 441.5q0 -189.5 65.5 -256t214 -66.5t249.5 82q139 115 213.5 344t74.5 459q0 154 -68.5 224t-208.5 70t-235 -75q-141 -117 -223 -354.5 t-82 -427zM719 1767q137 123 215 123q55 0 158.5 -56t124.5 -56q41 0 139 69l33 25l6 -109q-129 -121 -205 -121q-47 0 -153.5 57.5t-131.5 57.5q-45 0 -147 -74l-35 -26z" />
<glyph unicode="&#xd6;" horiz-adv-x="1286" d="M233 422q0 244 85 485.5t243 386t375 144.5q440 0 440 -424q0 -277 -87 -524.5t-246.5 -378.5t-380 -131t-325 99t-104.5 343zM395 441.5q0 -189.5 65.5 -256t214 -66.5t249.5 82q139 115 213.5 344t74.5 459q0 154 -68.5 224t-208.5 70t-235 -75q-141 -117 -223 -354.5 t-82 -427zM760 1663l43 190h141l-45 -190h-139zM1147 1663l43 190h139l-43 -190h-139z" />
<glyph unicode="&#xd7;" d="M262 184l334 330l-332 328l98 98l328 -332l330 334l98 -98l-332 -330l332 -330l-98 -98l-330 332l-328 -332z" />
<glyph unicode="&#xd8;" horiz-adv-x="1286" d="M141 -182l185 272q-92 98 -92.5 337t84.5 480.5t243 386t375 144.5q164 0 266 -58l172 252l96 -43l-186 -274q92 -109 92 -301q0 -276 -87 -524t-246.5 -379t-374.5 -131q-162 0 -260 49l-181 -262zM395 414q0 -117 29 -176l690 1013q-66 47 -192.5 47t-221.5 -75 q-141 -117 -223 -354.5t-82 -454.5zM496 158q66 -39 196.5 -39t231.5 82q139 115 213.5 344t74.5 459q0 104 -28 163l-334 -493z" />
<glyph unicode="&#xd9;" horiz-adv-x="1216" d="M231 274q0 100 23 187l221 956h158l-225 -973q-21 -81 -21 -149q0 -176 262 -176q162 0 243 75.5t118 237.5l227 985h158l-228 -985q-53 -233 -177 -342.5t-335 -109.5q-424 0 -424 294zM729 1774l76 131l379 -193l-70 -115z" />
<glyph unicode="&#xda;" horiz-adv-x="1216" d="M231 274q0 100 23 187l221 956h158l-225 -973q-21 -81 -21 -149q0 -176 262 -176q162 0 243 75.5t118 237.5l227 985h158l-228 -985q-53 -233 -177 -342.5t-335 -109.5q-424 0 -424 294zM772 1724l467 193l18 -133l-466 -176z" />
<glyph unicode="&#xdb;" horiz-adv-x="1216" d="M231 274q0 100 23 187l221 956h158l-225 -973q-21 -81 -21 -149q0 -176 262 -176q162 0 243 75.5t118 237.5l227 985h158l-228 -985q-53 -233 -177 -342.5t-335 -109.5q-424 0 -424 294zM659 1624l336 283h84l197 -283h-141l-111 166l-197 -166h-168z" />
<glyph unicode="&#xdc;" horiz-adv-x="1216" d="M231 274q0 100 23 187l221 956h158l-225 -973q-21 -81 -21 -149q0 -176 262 -176q162 0 243 75.5t118 237.5l227 985h158l-228 -985q-53 -233 -177 -342.5t-335 -109.5q-424 0 -424 294zM707 1663l43 190h141l-45 -190h-139zM1094 1663l41 190h141l-45 -190h-137z" />
<glyph unicode="&#xdd;" horiz-adv-x="1009" d="M348 1417h160l166 -661l469 661h170l-600 -811l-142 -606h-149l143 618zM688 1724l467 193l19 -133l-467 -176z" />
<glyph unicode="&#xde;" horiz-adv-x="1124" d="M156 0l336 1425h151l-55 -227h317q209 0 287 -129q49 -84 49 -172t-16 -162q-49 -225 -186.5 -357t-342.5 -132h-6h-325l-58 -246h-151zM399 397h326q260 0 346 338q16 61 16 118.5t-24 104.5q-43 86 -193 89l-317 2z" />
<glyph unicode="&#xdf;" horiz-adv-x="1103" d="M133 0l256 1083q53 225 156.5 316.5t296.5 91.5q336 0 336 -246q0 -217 -197 -311q-98 -45 -134 -72.5t-36 -66.5t23.5 -64.5t119 -84t132 -104.5t36.5 -145q0 -193 -118.5 -305t-329.5 -112q-111 0 -219 28l-39 10l28 121q135 -27 222 -26q143 0 222 73.5t79 194.5 q0 57 -29 91t-122 90t-126 100.5t-33 119t45.5 125.5t147.5 103.5t137 98.5t35 118q0 131 -193 131q-131 0 -197.5 -66.5t-103.5 -226.5l-249 -1065h-146z" />
<glyph unicode="&#xe0;" horiz-adv-x="1024" d="M182 285q0 170 54.5 339t177.5 294.5t284 125.5q125 0 342 -36l78 -15l-155 -665q-29 -115 -50 -271l-8 -53l-149 -6q29 176 37 219q-10 -18 -60.5 -70.5t-89.5 -84t-94.5 -57t-104.5 -25.5q-262 0 -262 305zM340 309.5q0 -110.5 35 -153.5t104.5 -43t152.5 66.5 t138 133.5l53 68l117 502q-143 29 -246.5 28.5t-189.5 -106t-125 -245.5t-39 -250.5zM618 1397l74 121l379 -191l-67 -106z" />
<glyph unicode="&#xe1;" horiz-adv-x="1024" d="M182 285q0 170 54.5 339t177.5 294.5t284 125.5q125 0 342 -36l78 -15l-155 -665q-29 -115 -50 -271l-8 -53l-149 -6q29 176 37 219q-10 -18 -60.5 -70.5t-89.5 -84t-94.5 -57t-104.5 -25.5q-262 0 -262 305zM340 309.5q0 -110.5 35 -153.5t104.5 -43t152.5 66.5 t138 133.5l53 68l117 502q-143 29 -246.5 28.5t-189.5 -106t-125 -245.5t-39 -250.5zM682 1339l467 193l14 -135l-467 -176z" />
<glyph unicode="&#xe2;" horiz-adv-x="1024" d="M182 285q0 170 54.5 339t177.5 294.5t284 125.5q125 0 342 -36l78 -15l-155 -665q-29 -115 -50 -271l-8 -53l-149 -6q29 176 37 219q-10 -18 -60.5 -70.5t-89.5 -84t-94.5 -57t-104.5 -25.5q-262 0 -262 305zM340 309.5q0 -110.5 35 -153.5t104.5 -43t152.5 66.5 t138 133.5l53 68l117 502q-143 29 -246.5 28.5t-189.5 -106t-125 -245.5t-39 -250.5zM494 1202l317 309h109l176 -309h-154l-98 176l-182 -176h-168z" />
<glyph unicode="&#xe3;" horiz-adv-x="1024" d="M182 285q0 170 54.5 339t177.5 294.5t284 125.5q125 0 342 -36l78 -15l-155 -665q-29 -115 -50 -271l-8 -53l-149 -6q29 176 37 219q-10 -18 -60.5 -70.5t-89.5 -84t-94.5 -57t-104.5 -25.5q-262 0 -262 305zM340 309.5q0 -110.5 35 -153.5t104.5 -43t152.5 66.5 t138 133.5l53 68l117 502q-143 29 -246.5 28.5t-189.5 -106t-125 -245.5t-39 -250.5zM563 1382q127 109 203 109q49 0 142 -49t114 -49q39 0 125 61l31 23l10 -115q-117 -105 -193 -105q-43 0 -139 49.5t-119 49.5q-43 0 -137 -66l-31 -22z" />
<glyph unicode="&#xe4;" horiz-adv-x="1024" d="M182 285q0 170 54.5 339t177.5 294.5t284 125.5q125 0 342 -36l78 -15l-155 -665q-29 -115 -50 -271l-8 -53l-149 -6q29 176 37 219q-10 -18 -60.5 -70.5t-89.5 -84t-94.5 -57t-104.5 -25.5q-262 0 -262 305zM340 309.5q0 -110.5 35 -153.5t104.5 -43t152.5 66.5 t138 133.5l53 68l117 502q-143 29 -246.5 28.5t-189.5 -106t-125 -245.5t-39 -250.5zM545 1270l43 190h141l-45 -190h-139zM934 1270l41 190h141l-45 -190h-137z" />
<glyph unicode="&#xe5;" horiz-adv-x="1024" d="M182 285q0 170 54.5 339t177.5 294.5t284 125.5q125 0 342 -36l78 -15l-155 -665q-29 -115 -50 -271l-8 -53l-149 -6q29 176 37 219q-10 -18 -60.5 -70.5t-89.5 -84t-94.5 -57t-104.5 -25.5q-262 0 -262 305zM340 309.5q0 -110.5 35 -153.5t104.5 -43t152.5 66.5 t138 133.5l53 68l117 502q-143 29 -246.5 28.5t-189.5 -106t-125 -245.5t-39 -250.5zM684 1286q0 133 90 213q63 57 146.5 57t116 -41.5t32.5 -99.5q0 -16 -2 -33q-8 -100 -76.5 -163.5t-160 -63.5t-125.5 57q-20 35 -21 74zM778 1327.5q0 -18.5 17.5 -45.5t58.5 -27t76 29 q47 41 47 96q0 23 -17.5 47.5t-58.5 24.5t-74.5 -26.5t-41 -53t-7.5 -45z" />
<glyph unicode="&#xe6;" horiz-adv-x="1533" d="M127 190.5q0 57.5 10 104.5q27 141 117 208.5t234.5 91t314.5 30.5q31 90 31 149q0 121 -123 121q-147 0 -310 -16l-59 -7l25 142q233 31 352 30q225 0 254 -151q125 152 340 151q289 0 295 -276q0 -109 -29 -211l-31 -113l-624 5q-21 -89 -21 -152q0 -174 184 -174 q147 0 297 12l58 6l-27 -129q-207 -33 -385 -32.5t-248 110.5q-90 -39 -224 -74.5t-218 -35.5q-129 0 -180 94q-33 59 -33 116.5zM285 242q0 -125 104 -125q127 0 361 78q-6 29 -6.5 94t34.5 211q-147 -12 -282 -29q-168 -27 -205 -172q-6 -30 -6 -57zM950 573l486 -4 q23 86 22.5 126t-0.5 50q-6 160 -180 160q-127 0 -207 -80t-121 -252z" />
<glyph unicode="&#xe7;" horiz-adv-x="831" d="M188 291q0 438 238 645q125 109 301 108q96 0 219 -28l37 -10l-39 -119q-133 25 -221 24q-123 0 -211 -90q-166 -166 -166 -502q0 -102 49 -154t162 -52q80 0 188 22l41 8l-10 -120q-141 -43 -268 -43l-19 -72h11q174 0 174 -113q0 -23 -6 -49q-39 -178 -222 -178 q-88 0 -143 10l-20 4l26 105q76 -6 127 -6q84 0 105 73q10 39 -9.5 53.5t-60.5 14.5h-80l37 164q-240 37 -240 305z" />
<glyph unicode="&#xe8;" horiz-adv-x="946" d="M186 291q0 285 129 508q66 111 175.5 178t246.5 67q303 0 303 -249q0 -182 -137 -255t-436 -73h-105q-23 -80 -22.5 -168t53.5 -136t131 -48q145 0 299 32l51 13l-12 -121q-182 -59 -350 -59q-326 0 -326 311zM383 588h113q209 0 301 44t92 161q0 123 -158 122 q-252 0 -348 -327zM455 1397l73 121l379 -191l-67 -106z" />
<glyph unicode="&#xe9;" horiz-adv-x="946" d="M186 291q0 285 129 508q66 111 175.5 178t246.5 67q303 0 303 -249q0 -182 -137 -255t-436 -73h-105q-23 -80 -22.5 -168t53.5 -136t131 -48q145 0 299 32l51 13l-12 -121q-182 -59 -350 -59q-326 0 -326 311zM383 588h113q209 0 301 44t92 161q0 123 -158 122 q-252 0 -348 -327zM600 1339l467 193l14 -135l-467 -176z" />
<glyph unicode="&#xea;" horiz-adv-x="946" d="M186 291q0 285 129 508q66 111 175.5 178t246.5 67q303 0 303 -249q0 -182 -137 -255t-436 -73h-105q-23 -80 -22.5 -168t53.5 -136t131 -48q145 0 299 32l51 13l-12 -121q-182 -59 -350 -59q-326 0 -326 311zM383 588h113q209 0 301 44t92 161q0 123 -158 122 q-252 0 -348 -327zM451 1202l317 309h109l176 -309h-154l-98 176l-183 -176h-167z" />
<glyph unicode="&#xeb;" horiz-adv-x="946" d="M186 291q0 285 129 508q66 111 175.5 178t246.5 67q303 0 303 -249q0 -182 -137 -255t-436 -73h-105q-23 -80 -22.5 -168t53.5 -136t131 -48q145 0 299 32l51 13l-12 -121q-182 -59 -350 -59q-326 0 -326 311zM383 588h113q209 0 301 44t92 161q0 123 -158 122 q-252 0 -348 -327zM518 1270l43 190h141l-45 -190h-139zM907 1270l41 190h142l-46 -190h-137z" />
<glyph unicode="&#xec;" horiz-adv-x="421" d="M135 0l236 1024h153l-237 -1024h-152zM156 1397l73 121l379 -191l-67 -106z" />
<glyph unicode="&#xed;" horiz-adv-x="421" d="M135 0l236 1024h153l-237 -1024h-152zM383 1339l467 193l14 -135l-467 -176z" />
<glyph unicode="&#xee;" horiz-adv-x="421" d="M135 0l236 1024h153l-237 -1024h-152zM172 1202l317 309h109l178 -309h-155l-99 176l-182 -176h-168z" />
<glyph unicode="&#xef;" horiz-adv-x="421" d="M135 0l236 1024h153l-237 -1024h-152zM211 1270l45 190h141l-45 -190h-141zM600 1270l41 190h141l-45 -190h-137z" />
<glyph unicode="&#xf0;" horiz-adv-x="1058" d="M164 285q0 29 4 61q20 240 168.5 388.5t355.5 148.5q66 0 140.5 -17.5t117.5 -36.5l43 -18q6 41 6 78q0 205 -194 328l-234 -152l-57 94l178 115q-98 39 -188 65l59 138q180 -39 293 -99l215 140l55 -95l-168 -108q197 -150 197 -402q0 -84 -22 -182q-94 -393 -244 -571 t-381 -178q-190 0 -277 104q-68 84 -67 199zM328 313q0 -180 215 -180q285 1 420 531q-147 74 -289 73.5t-238 -110t-106 -275.5q-2 -20 -2 -39z" />
<glyph unicode="&#xf1;" horiz-adv-x="1019" d="M135 0l236 1024h149l-37 -178l45 51q43 49 125 98t160 49q119 0 180.5 -69.5t61.5 -180t-41 -274.5l-121 -520h-152l119 510q39 156 39 246q0 153 -139 153q-39 0 -86 -24q-113 -59 -209 -180l-21 -25l-157 -680h-152zM518 1382q127 109 203 109q49 0 142 -49t114 -49 q39 0 125 61l31 23l10 -115q-117 -105 -193 -105q-43 0 -139 49.5t-119 49.5q-43 0 -137 -66l-31 -22z" />
<glyph unicode="&#xf2;" horiz-adv-x="1011" d="M186 315q0 295 146.5 512t369.5 217q354 0 355 -348q0 -190 -60.5 -352t-181.5 -263t-278 -101q-350 0 -351 335zM340 313q0 -200 197 -200q164 0 265 173t101 412q0 98 -50 155.5t-151 57.5q-160 0 -261 -179t-101 -419zM512 1397l74 121l379 -191l-68 -106z" />
<glyph unicode="&#xf3;" horiz-adv-x="1011" d="M186 315q0 295 146.5 512t369.5 217q354 0 355 -348q0 -190 -60.5 -352t-181.5 -263t-278 -101q-350 0 -351 335zM340 313q0 -200 197 -200q164 0 265 173t101 412q0 98 -50 155.5t-151 57.5q-160 0 -261 -179t-101 -419zM604 1339l467 193l14 -135l-467 -176z" />
<glyph unicode="&#xf4;" horiz-adv-x="1011" d="M186 315q0 295 146.5 512t369.5 217q354 0 355 -348q0 -190 -60.5 -352t-181.5 -263t-278 -101q-350 0 -351 335zM340 313q0 -200 197 -200q164 0 265 173t101 412q0 98 -50 155.5t-151 57.5q-160 0 -261 -179t-101 -419zM481 1202l318 309h108l178 -309h-155l-99 176 l-182 -176h-168z" />
<glyph unicode="&#xf5;" horiz-adv-x="1011" d="M186 315q0 295 146.5 512t369.5 217q354 0 355 -348q0 -190 -60.5 -352t-181.5 -263t-278 -101q-350 0 -351 335zM340 313q0 -200 197 -200q164 0 265 173t101 412q0 98 -50 155.5t-151 57.5q-160 0 -261 -179t-101 -419zM487 1382q127 109 203 109q49 0 142.5 -49 t113.5 -49q39 0 127 61l29 23l10 -115q-116 -105 -192 -105q-43 0 -139.5 49.5t-121.5 49.5q-41 0 -135 -66l-30 -22z" />
<glyph unicode="&#xf6;" horiz-adv-x="1011" d="M186 315q0 295 146.5 512t369.5 217q354 0 355 -348q0 -190 -60.5 -352t-181.5 -263t-278 -101q-350 0 -351 335zM340 313q0 -200 197 -200q164 0 265 173t101 412q0 98 -50 155.5t-151 57.5q-160 0 -261 -179t-101 -419zM537 1270l43 190h127l-45 -190h-125zM911 1270 l41 190h127l-45 -190h-123z" />
<glyph unicode="&#xf7;" d="M365 575v150h116v98h422v-98h115v-150h-653zM614 61v207h154v-207h-154z" />
<glyph unicode="&#xf8;" horiz-adv-x="1011" d="M123 -188l158 249q-92 82 -93 258q0 295 147 512.5t370 217.5q100 0 174 -31l137 221l92 -41l-147 -231q98 -88 98 -272.5t-60.5 -346.5t-181.5 -263t-278 -101q-102 0 -179 28l-147 -239zM342 317q0 -74 27 -118l211 331l223 365q-39 20 -98 20q-160 0 -261.5 -179 t-101.5 -419zM438 135q42 -18 101 -18q164 0 265 173t101 412q0 76 -31 129l-217 -342z" />
<glyph unicode="&#xf9;" horiz-adv-x="1019" d="M201 229.5q0 110.5 41 274.5l120 520h152l-119 -510q-39 -156 -39 -246q0 -154 140 -153q61 0 140 57t126 115l49 57l158 680h151l-235 -1024h-150l37 178q-18 -23 -48 -55.5t-117 -87.5t-165 -55q-119 0 -180 69.5t-61 180zM516 1397l74 121l379 -191l-68 -106z" />
<glyph unicode="&#xfa;" horiz-adv-x="1019" d="M201 229.5q0 110.5 41 274.5l120 520h152l-119 -510q-39 -156 -39 -246q0 -154 140 -153q61 0 140 57t126 115l49 57l158 680h151l-235 -1024h-150l37 178q-18 -23 -48 -55.5t-117 -87.5t-165 -55q-119 0 -180 69.5t-61 180zM627 1339l467 193l14 -135l-467 -176z" />
<glyph unicode="&#xfb;" horiz-adv-x="1019" d="M201 229.5q0 110.5 41 274.5l120 520h152l-119 -510q-39 -156 -39 -246q0 -154 140 -153q61 0 140 57t126 115l49 57l158 680h151l-235 -1024h-150l37 178q-18 -23 -48 -55.5t-117 -87.5t-165 -55q-119 0 -180 69.5t-61 180zM451 1202l317 309h109l176 -309h-154l-98 176 l-183 -176h-167z" />
<glyph unicode="&#xfc;" horiz-adv-x="1019" d="M201 229.5q0 110.5 41 274.5l120 520h152l-119 -510q-39 -156 -39 -246q0 -154 140 -153q61 0 140 57t126 115l49 57l158 680h151l-235 -1024h-150l37 178q-18 -23 -48 -55.5t-117 -87.5t-165 -55q-119 0 -180 69.5t-61 180zM508 1270l45 190h141l-45 -190h-141z M897 1270l41 190h141l-45 -190h-137z" />
<glyph unicode="&#xfd;" horiz-adv-x="929" d="M215 -453l236 453h-140l-26 1024h151l17 -893h61l447 893h157l-747 -1477h-156zM578 1339l466 193l15 -135l-467 -176z" />
<glyph unicode="&#xfe;" horiz-adv-x="989" d="M27 -451l452 1917h146l-129 -544q157 122 290 122q102 0 167 -50t80.5 -122.5t15.5 -114.5t-2.5 -92.5t-26.5 -136.5q-78 -291 -204 -419.5t-341 -128.5q-84 0 -141.5 8t-57.5 10l-106 -449h-143zM309 141l193 -20q145 0 229 99t141 310q23 74 23 156q0 213 -154 213 q-57 0 -127.5 -32.5t-113.5 -63.5l-41 -31z" />
<glyph unicode="&#xff;" horiz-adv-x="929" d="M215 -453l236 453h-140l-26 1024h151l17 -893h61l447 893h157l-747 -1477h-156zM467 1270l43 190h141l-45 -190h-139zM856 1270l41 190h141l-45 -190h-137z" />
<glyph unicode="&#x100;" horiz-adv-x="1134" d="M49 0l707 1417h305l29 -1417h-156l-12 362h-531l-182 -362h-160zM457 500h467l-15 778h-61zM645 1698l27 123h602l-29 -123h-600z" />
<glyph unicode="&#x101;" horiz-adv-x="1024" d="M182 285q0 170 54.5 339t177.5 294.5t284 125.5q125 0 342 -36l78 -15l-155 -665q-29 -115 -50 -271l-8 -53l-149 -6q29 176 37 219q-10 -18 -60.5 -70.5t-89.5 -84t-94.5 -57t-104.5 -25.5q-262 0 -262 305zM340 309.5q0 -110.5 35 -153.5t104.5 -43t152.5 66.5 t138 133.5l53 68l117 502q-143 29 -246.5 28.5t-189.5 -106t-125 -245.5t-39 -250.5zM584 1309l28 121h564l-31 -121h-561z" />
<glyph unicode="&#x102;" horiz-adv-x="1134" d="M49 0l707 1417h305l29 -1417h-156l-12 362h-531l-182 -362h-160zM457 500h467l-15 778h-61zM705 1827q0 29 6 61h135q-4 -20 -4 -52t27.5 -58.5t94 -26.5t119 38t70.5 99h135q-76 -260 -348 -260q-236 0 -235 199z" />
<glyph unicode="&#x103;" horiz-adv-x="1024" d="M182 285q0 170 54.5 339t177.5 294.5t284 125.5q125 0 342 -36l78 -15l-155 -665q-29 -115 -50 -271l-8 -53l-149 -6q29 176 37 219q-10 -18 -60.5 -70.5t-89.5 -84t-94.5 -57t-104.5 -25.5q-262 0 -262 305zM340 309.5q0 -110.5 35 -153.5t104.5 -43t152.5 66.5 t138 133.5l53 68l117 502q-143 29 -246.5 28.5t-189.5 -106t-125 -245.5t-39 -250.5zM612 1423q0 35 9 74h133q-6 -25 -6 -54.5t26.5 -65.5t104.5 -36q156 0 200 156h133q-82 -283 -370 -283q-133 0 -191 76q-39 53 -39 133z" />
<glyph unicode="&#x104;" horiz-adv-x="1134" d="M49 0l707 1417h305l29 -1409v-8h-11q-61 -51 -119.5 -122t-58.5 -118q0 -41 49 -41l99 11l-15 -129q-92 -18 -157 -19q-143 0 -144 129q0 68 62.5 149t138.5 142l-12 360h-531l-182 -362h-160zM457 500h467l-15 778h-61z" />
<glyph unicode="&#x105;" horiz-adv-x="1024" d="M182 285q0 170 54.5 339t177.5 294.5t284 125.5q125 0 342 -36l78 -15l-155 -665q-29 -115 -50 -271l-8 -53h-12q-59 -49 -120.5 -123t-61.5 -121q0 -41 49 -41l98 11l-14 -129q-92 -19 -158 -19q-143 0 -143 129q0 70 69.5 157t145.5 148q4 16 17 98.5t18 102.5 q-10 -18 -60.5 -70.5t-89.5 -84t-94 -57t-105 -25.5q-262 0 -262 305zM340 309.5q0 -110.5 35 -153.5t104.5 -43t152.5 66.5t138 133.5l53 68l117 502q-143 29 -246.5 28.5t-189.5 -106t-125 -245.5t-39 -250.5z" />
<glyph unicode="&#x106;" horiz-adv-x="1032" d="M229 385q0 365 168 688q82 160 224.5 262.5t322.5 102.5q135 0 291 -37l49 -10l-35 -123q-158 31 -299 30.5t-247.5 -85.5t-172.5 -218q-137 -283 -137 -602q0 -139 60.5 -206.5t191.5 -67.5q156 0 287 24l47 11l-10 -129q-182 -45 -344 -45q-395 0 -396 405zM823 1724 l467 193l19 -133l-467 -176z" />
<glyph unicode="&#x107;" horiz-adv-x="829" d="M188 291q0 438 238 645q125 108 301 108q96 0 219 -28l37 -10l-39 -119q-133 25 -221 24q-123 0 -211 -90q-166 -166 -166 -502q0 -102 49 -154t162 -52q80 0 188 22l41 8l-10 -120q-141 -43 -283.5 -43t-223.5 80.5t-81 230.5zM588 1339l467 193l14 -135l-467 -176z" />
<glyph unicode="&#x108;" horiz-adv-x="1032" d="M229 385q0 365 168 688q82 160 224.5 262.5t322.5 102.5q135 0 291 -37l49 -10l-35 -123q-158 31 -299 30.5t-247.5 -85.5t-172.5 -218q-137 -283 -137 -602q0 -139 60.5 -206.5t191.5 -67.5q156 0 287 24l47 11l-10 -129q-182 -45 -344 -45q-395 0 -396 405zM686 1624 l336 283h84l197 -283h-142l-110 166l-197 -166h-168z" />
<glyph unicode="&#x109;" horiz-adv-x="829" d="M188 291q0 438 238 645q125 108 301 108q96 0 219 -28l37 -10l-39 -119q-133 25 -221 24q-123 0 -211 -90q-166 -166 -166 -502q0 -102 49 -154t162 -52q80 0 188 22l41 8l-10 -120q-141 -43 -283.5 -43t-223.5 80.5t-81 230.5zM463 1202l317 309h82l178 -309h-141 l-98 176l-183 -176h-155z" />
<glyph unicode="&#x10a;" horiz-adv-x="1032" d="M229 385q0 365 168 688q82 160 224.5 262.5t322.5 102.5q135 0 291 -37l49 -10l-35 -123q-158 31 -299 30.5t-247.5 -85.5t-172.5 -218q-137 -283 -137 -602q0 -139 60.5 -206.5t191.5 -67.5q156 0 287 24l47 11l-10 -129q-182 -45 -344 -45q-395 0 -396 405zM922 1624 l41 184h131l-43 -184h-129z" />
<glyph unicode="&#x10b;" horiz-adv-x="829" d="M188 291q0 438 238 645q125 108 301 108q96 0 219 -28l37 -10l-39 -119q-133 25 -221 24q-123 0 -211 -90q-166 -166 -166 -502q0 -102 49 -154t162 -52q80 0 188 22l41 8l-10 -120q-141 -43 -283.5 -43t-223.5 80.5t-81 230.5zM684 1239l43 182h131l-43 -182h-131z" />
<glyph unicode="&#x10c;" horiz-adv-x="1032" d="M229 385q0 365 168 688q82 160 224.5 262.5t322.5 102.5q135 0 291 -37l49 -10l-35 -123q-158 31 -299 30.5t-247.5 -85.5t-172.5 -218q-137 -283 -137 -602q0 -139 60.5 -206.5t191.5 -67.5q156 0 287 24l47 11l-10 -129q-182 -45 -344 -45q-395 0 -396 405zM745 1903 h152l119 -168l190 168h158l-322 -281h-96z" />
<glyph unicode="&#x10d;" horiz-adv-x="829" d="M188 291q0 438 238 645q125 108 301 108q96 0 219 -28l37 -10l-39 -119q-133 25 -221 24q-123 0 -211 -90q-166 -166 -166 -502q0 -102 49 -154t162 -52q80 0 188 22l41 8l-10 -120q-141 -43 -283.5 -43t-223.5 80.5t-81 230.5zM543 1511h141l104 -182l185 182h153 l-323 -309h-86z" />
<glyph unicode="&#x10e;" horiz-adv-x="1243" d="M160 0l327 1417h455q195 0 294 -100t99 -322q0 -285 -106 -536q-55 -131 -133 -232.5t-194 -164t-253 -62.5h-489zM350 139h322q121 0 220 86t157.5 218t90 276.5t31.5 285t-61 207t-199 66.5h-301zM666 1903h151l119 -168l190 168h158l-321 -281h-97z" />
<glyph unicode="&#x10f;" horiz-adv-x="1128" d="M182 279q0 180 57.5 352t178.5 292.5t276 120.5q104 0 232 -28l41 -8l108 462h154l-342 -1470h-148l39 182q-18 -27 -60 -66.5t-79 -66.5q-101 -69 -199 -69q-258 0 -258 299zM340 281q0 -168 147 -168q61 0 143.5 60t135.5 122l51 59l123 527q-135 31 -244.5 30.5 t-193.5 -107t-123 -247.5t-39 -276zM1225 942l112 475h140l-111 -475h-141z" />
<glyph unicode="&#x110;" horiz-adv-x="1251" d="M168 0l145 633h-137l33 158h141l146 626h454q195 0 294 -100t99 -322q0 -285 -106 -536q-55 -131 -133 -232.5t-194 -164t-253 -62.5h-489zM358 139h322q121 0 220 86t157.5 218t90.5 276.5t32 285t-61.5 207t-198.5 66.5h-302l-112 -487h291l-37 -158h-289z" />
<glyph unicode="&#x111;" horiz-adv-x="1024" d="M182 279q0 180 57.5 352t178.5 292.5t276 120.5q104 0 232 -28l41 -8l45 198h-295l33 142h297l28 122h154l-29 -122h113l-33 -142h-113l-280 -1206h-148l39 182q-18 -27 -60 -66.5t-79 -66.5q-101 -69 -199 -69q-258 0 -258 299zM340 281q0 -168 147 -168q61 0 143.5 60 t135.5 122l51 59l123 527q-135 31 -244.5 30.5t-193.5 -107t-123 -247.5t-39 -276z" />
<glyph unicode="&#x112;" horiz-adv-x="1034" d="M160 0l325 1417h791l-33 -139h-633l-112 -487h520l-33 -140h-518l-119 -512h633l-31 -139h-790zM625 1686l26 122h602l-28 -122h-600z" />
<glyph unicode="&#x113;" horiz-adv-x="946" d="M186 291q0 285 129 508q66 111 175.5 178t246.5 67q303 0 303 -249q0 -182 -137 -255t-436 -73h-105q-23 -80 -22.5 -168t53.5 -136t131 -48q145 0 299 32l51 13l-12 -121q-182 -59 -350 -59q-326 0 -326 311zM383 588h113q209 0 301 44t92 161q0 123 -158 122 q-252 0 -348 -327zM522 1309l29 121h563l-31 -121h-561z" />
<glyph unicode="&#x114;" horiz-adv-x="1034" d="M160 0l325 1417h791l-33 -139h-633l-112 -487h520l-33 -140h-518l-119 -512h633l-31 -139h-790zM674 1829q0 29 6 61h135q-4 -20 -4 -52t27.5 -58.5t94 -26.5t119 38t70.5 99h135q-76 -260 -348 -260q-236 0 -235 199z" />
<glyph unicode="&#x115;" horiz-adv-x="946" d="M186 291q0 285 129 508q66 111 175.5 178t246.5 67q303 0 303 -249q0 -182 -137 -255t-436 -73h-105q-23 -80 -22.5 -168t53.5 -136t131 -48q145 0 299 32l51 13l-12 -121q-182 -59 -350 -59q-326 0 -326 311zM383 588h113q209 0 301 44t92 161q0 123 -158 122 q-252 0 -348 -327zM545 1423q0 35 8 74h133q-6 -25 -6 -54.5t26.5 -65.5t104.5 -36q156 0 201 156h133q-82 -283 -371 -283q-133 0 -188 76q-41 53 -41 133z" />
<glyph unicode="&#x116;" horiz-adv-x="1034" d="M160 0l325 1417h791l-33 -139h-633l-112 -487h520l-33 -140h-518l-119 -512h633l-31 -139h-790zM856 1700l41 184h131l-43 -184h-129z" />
<glyph unicode="&#x117;" horiz-adv-x="946" d="M186 291q0 285 129 508q66 111 175.5 178t246.5 67q303 0 303 -249q0 -182 -137 -255t-436 -73h-105q-23 -80 -22.5 -168t53.5 -136t131 -48q145 0 299 32l51 13l-12 -121q-182 -59 -350 -59q-326 0 -326 311zM383 588h113q209 0 301 44t92 161q0 123 -158 122 q-252 0 -348 -327zM692 1239l43 182h131l-43 -182h-131z" />
<glyph unicode="&#x118;" horiz-adv-x="1034" d="M160 0l325 1417h791l-33 -139h-633l-112 -487h520l-33 -140h-518l-119 -512h633l-31 -139h-43q-61 -51 -119.5 -122t-58.5 -118q0 -41 49 -41l99 11l-15 -129q-92 -18 -157 -19q-143 0 -144 129q0 66 60.5 146t136.5 143h-598z" />
<glyph unicode="&#x119;" horiz-adv-x="946" d="M186 281.5q0 146.5 33 276.5t97.5 240.5t174 178t246.5 67.5q303 0 303 -249q0 -182 -137 -255t-436 -73h-105q-23 -80 -22.5 -168t53.5 -136t131 -48q145 0 299 32l51 13l-12 -121q-14 -6 -31 -10q-59 -49 -111 -116t-52 -112q0 -41 49 -41l98 11l-14 -129 q-92 -19 -158 -19q-143 0 -143 129q0 100 141 238q-78 -10 -145 -10q-150 0 -230 77.5t-80 224zM383 588h113q209 0 301 44t92 161q0 123 -158 122q-252 0 -348 -327z" />
<glyph unicode="&#x11a;" horiz-adv-x="1034" d="M160 0l325 1417h791l-33 -139h-633l-112 -487h520l-33 -140h-518l-119 -512h633l-31 -139h-790zM655 1917h152l119 -168l190 168h158l-322 -281h-96z" />
<glyph unicode="&#x11b;" horiz-adv-x="946" d="M186 291q0 285 129 508q66 111 175.5 178t246.5 67q303 0 303 -249q0 -182 -137 -255t-436 -73h-105q-23 -80 -22.5 -168t53.5 -136t131 -48q145 0 299 32l51 13l-12 -121q-182 -59 -350 -59q-326 0 -326 311zM383 588h113q209 0 301 44t92 161q0 123 -158 122 q-252 0 -348 -327zM561 1511h141l105 -182l184 182h154l-324 -309h-86z" />
<glyph unicode="&#x11c;" horiz-adv-x="1171" d="M231 381q0 403 175 717q86 154 230 247t325 93q174 0 350 -49l57 -15l-39 -119q-205 43 -389 43q-111 0 -203 -58t-153.5 -153.5t-104.5 -218.5q-84 -229 -84 -489t281 -260q90 0 211 24l37 7l106 450h-215l31 135h373l-164 -700q-181 -55 -396 -55q-428 0 -428 401z M694 1595l318 310h108l178 -310h-155l-99 177l-182 -177h-168z" />
<glyph unicode="&#x11d;" horiz-adv-x="958" d="M37 -213q0 174 270 313q-33 33 -33 81t29 97.5t57 77.5l27 31q-141 66 -141 236t112.5 295.5t298.5 125.5q94 0 170 -24l27 -8l303 12l-31 -131h-182q35 -57 35 -141q0 -154 -115.5 -279t-316.5 -125l-68 6q-63 -82 -63 -125t39 -58t176 -32.5t210.5 -72t73.5 -168.5 q0 -158 -140.5 -268.5t-371.5 -110.5q-170 0 -268 70.5t-98 197.5zM182 -186.5q0 -69.5 57.5 -116.5t187.5 -47t234.5 63.5t104.5 171.5q0 61 -44 88t-163 41.5t-172 32.5q-82 -41 -143.5 -102.5t-61.5 -131zM391 639q0 -164 170 -164q129 0 201 87t72 177t-43 133t-151 43 t-178.5 -87t-70.5 -189zM432 1202l318 309h81l179 -309h-142l-98 176l-182 -176h-156z" />
<glyph unicode="&#x11e;" horiz-adv-x="1171" d="M231 381q0 403 175 717q86 154 230 247t325 93q174 0 350 -49l57 -15l-39 -119q-205 43 -389 43q-111 0 -203 -58t-153.5 -153.5t-104.5 -218.5q-84 -229 -84 -489t281 -260q90 0 211 24l37 7l106 450h-215l31 135h373l-164 -700q-181 -55 -396 -55q-428 0 -428 401z M762 1815q0 37 6 75h147q-2 -14 -2 -53t33 -69.5t102.5 -30.5t122 42t70.5 111h148q-39 -133 -141.5 -215t-231.5 -82t-189.5 61.5t-64.5 160.5z" />
<glyph unicode="&#x11f;" horiz-adv-x="958" d="M37 -213q0 174 270 313q-33 33 -33 81t29 97.5t57 77.5l27 31q-141 66 -141 236t112.5 295.5t298.5 125.5q94 0 170 -24l27 -8l303 12l-31 -131h-182q35 -57 35 -141q0 -154 -115.5 -279t-316.5 -125l-68 6q-63 -82 -63 -125t39 -58t176 -32.5t210.5 -72t73.5 -168.5 q0 -158 -140.5 -268.5t-371.5 -110.5q-170 0 -268 70.5t-98 197.5zM182 -186.5q0 -69.5 57.5 -116.5t187.5 -47t234.5 63.5t104.5 171.5q0 61 -44 88t-163 41.5t-172 32.5q-82 -41 -143.5 -102.5t-61.5 -131zM391 639q0 -164 170 -164q129 0 201 87t72 177t-43 133t-151 43 t-178.5 -87t-70.5 -189zM537 1423q0 35 8 74h133q-6 -25 -6 -54.5t26.5 -65.5t104.5 -36q156 0 201 156h133q-82 -283 -371 -283q-133 0 -188 76q-41 53 -41 133z" />
<glyph unicode="&#x120;" horiz-adv-x="1171" d="M231 381q0 403 175 717q86 154 230 247t325 93q174 0 350 -49l57 -15l-39 -119q-205 43 -389 43q-111 0 -203 -58t-153.5 -153.5t-104.5 -218.5q-84 -229 -84 -489t281 -260q90 0 211 24l37 7l106 450h-215l31 135h373l-164 -700q-181 -55 -396 -55q-428 0 -428 401z M952 1632l43 183h144l-43 -183h-144z" />
<glyph unicode="&#x121;" horiz-adv-x="958" d="M37 -213q0 174 270 313q-33 33 -33 81t29 97.5t57 77.5l27 31q-141 66 -141 236t112.5 295.5t298.5 125.5q94 0 170 -24l27 -8l303 12l-31 -131h-182q35 -57 35 -141q0 -154 -115.5 -279t-316.5 -125l-68 6q-63 -82 -63 -125t39 -58t176 -32.5t210.5 -72t73.5 -168.5 q0 -158 -140.5 -268.5t-371.5 -110.5q-170 0 -268 70.5t-98 197.5zM182 -186.5q0 -69.5 57.5 -116.5t187.5 -47t234.5 63.5t104.5 171.5q0 61 -44 88t-163 41.5t-172 32.5q-82 -41 -143.5 -102.5t-61.5 -131zM391 639q0 -164 170 -164q129 0 201 87t72 177t-43 133t-151 43 t-178.5 -87t-70.5 -189zM664 1239l43 182h131l-43 -182h-131z" />
<glyph unicode="&#x122;" horiz-adv-x="1171" d="M231 381q0 403 175 717q86 154 230 247t325 93q174 0 350 -49l57 -15l-39 -119q-205 43 -389 43q-111 0 -203 -58t-153.5 -153.5t-104.5 -218.5q-84 -229 -84 -489t281 -260q90 0 211 24l37 7l106 450h-215l31 135h373l-164 -700q-181 -55 -396 -55q-428 0 -428 401z M348 -580l178 430h144l-197 -430h-125z" />
<glyph unicode="&#x123;" horiz-adv-x="958" d="M37 -213q0 174 270 313q-33 33 -33 81t29 97.5t57 77.5l27 31q-141 66 -141 236t112.5 295.5t298.5 125.5q94 0 170 -24l27 -8l303 12l-31 -131h-182q35 -57 35 -141q0 -154 -115.5 -279t-316.5 -125l-68 6q-63 -82 -63 -125t39 -58t176 -32.5t210.5 -72t73.5 -168.5 q0 -158 -140.5 -268.5t-371.5 -110.5q-170 0 -268 70.5t-98 197.5zM182 -186.5q0 -69.5 57.5 -116.5t187.5 -47t234.5 63.5t104.5 171.5q0 61 -44 88t-163 41.5t-172 32.5q-82 -41 -143.5 -102.5t-61.5 -131zM391 639q0 -164 170 -164q129 0 201 87t72 177t-43 133t-151 43 t-178.5 -87t-70.5 -189zM641 1196l197 430h125l-179 -430h-143z" />
<glyph unicode="&#x124;" horiz-adv-x="1277" d="M160 0l327 1417h156l-145 -633h645l145 633h158l-328 -1417h-157l149 647h-645l-150 -647h-155zM686 1624l336 283h84l197 -283h-142l-110 166l-197 -166h-168z" />
<glyph unicode="&#x125;" horiz-adv-x="1021" d="M135 0l340 1470h154l-146 -626q18 23 49 56.5t118 88.5t165 55q119 0 180.5 -69.5t61.5 -176t-43 -282.5l-119 -516h-152l119 510q37 168 37 246q0 154 -137 153q-100 0 -246 -149q-33 -35 -53 -60l-19 -22l-155 -678h-154zM594 1563l336 282h84l196 -282h-141l-111 166 l-196 -166h-168z" />
<glyph unicode="&#x126;" horiz-adv-x="1306" d="M174 0l238 1030h-162v2l31 139h163l58 246h149l-57 -246h659l58 246h149l-57 -246h162l-37 -141h-158l-235 -1030h-152l147 639h-659l-147 -639h-150zM506 788h659l56 242h-660z" />
<glyph unicode="&#x127;" horiz-adv-x="1021" d="M135 0l275 1186h-113l31 133h112l35 151h154l-37 -151h299l-33 -133h-297l-78 -342q18 23 49 56.5t118 88.5t165 55q119 0 180.5 -69.5t61.5 -176t-43 -282.5l-119 -516h-152l119 510q37 168 37 246q0 154 -137 153q-100 0 -246 -149q-33 -35 -53 -60l-19 -22l-155 -678 h-154z" />
<glyph unicode="&#x128;" horiz-adv-x="475" d="M160 0l327 1417h156l-328 -1417h-155zM295 1759q137 123 215 123q55 0 158.5 -56.5t126.5 -56.5q39 0 137 70l33 25l6 -109q-129 -121 -205 -121q-49 0 -153.5 57.5t-129.5 57.5q-47 0 -149 -74l-35 -26z" />
<glyph unicode="&#x129;" horiz-adv-x="421" d="M135 0l236 1024h153l-237 -1024h-152zM190 1382q127 109 203 109q49 0 142.5 -49t113.5 -49q39 0 125 61l31 23l10 -115q-116 -105 -192 -105q-43 0 -139.5 49.5t-118.5 49.5q-43 0 -138 -66l-30 -22z" />
<glyph unicode="&#x12a;" horiz-adv-x="475" d="M160 0l327 1417h156l-328 -1417h-155zM313 1706l27 123h602l-29 -123h-600z" />
<glyph unicode="&#x12b;" horiz-adv-x="421" d="M135 0l236 1024h153l-237 -1024h-152zM215 1309l29 121h563l-31 -121h-561z" />
<glyph unicode="&#x12c;" horiz-adv-x="475" d="M160 0l327 1417h156l-328 -1417h-155zM375 1827q0 29 6 61h135q-4 -20 -4 -52t27.5 -58.5t94 -26.5t119 38t70.5 99h135q-76 -260 -348 -260q-236 0 -235 199z" />
<glyph unicode="&#x12d;" horiz-adv-x="421" d="M135 0l236 1024h153l-237 -1024h-152zM242 1423q0 35 8 74h133q-6 -25 -6 -54.5t26.5 -65.5t104.5 -36q156 0 201 156h133q-82 -283 -371 -283q-133 0 -188 76q-41 53 -41 133z" />
<glyph unicode="&#x12e;" horiz-adv-x="475" d="M-47 -289q0 121 207 295l327 1411h156l-328 -1417q-63 -41 -128.5 -115.5t-65.5 -124.5q0 -41 49 -41l100 11l-16 -129q-90 -19 -156 -19q-145 0 -145 129z" />
<glyph unicode="&#x12f;" horiz-adv-x="423" d="M-74 -289q0 70 66.5 154t144.5 147l236 1012h153l-237 -1024q-66 -47 -130.5 -118.5t-64.5 -121.5q0 -41 49 -41l101 11l-17 -129q-89 -19 -155 -19q-145 0 -146 129zM420 1237l43 184h155l-43 -184h-155z" />
<glyph unicode="&#x130;" horiz-adv-x="475" d="M160 0l327 1417h156l-328 -1417h-155zM553 1700l41 184h131l-43 -184h-129z" />
<glyph unicode="&#x131;" horiz-adv-x="423" d="M135 0l236 1024h153l-237 -1024h-152z" />
<glyph unicode="&#x134;" horiz-adv-x="542" d="M14 -143l25 139q127 0 170 44t82 214l270 1163h156l-271 -1175q-41 -176 -79.5 -250t-114.5 -104.5t-238 -30.5zM356 1624l336 283h84l197 -283h-142l-110 166l-197 -166h-168z" />
<glyph unicode="&#x135;" horiz-adv-x="421" d="M-178 -358q182 94 229 147t84 211l236 1024h153l-237 -1024q-51 -227 -114.5 -300t-301.5 -181zM182 1202l318 309h82l178 -309h-142l-98 176l-182 -176h-156z" />
<glyph unicode="&#x136;" horiz-adv-x="1067" d="M160 0l327 1417h156l-151 -655l186 6l502 649h176l-551 -715l225 -702h-166l-200 629l-205 -6l-144 -623h-155zM291 -580l178 430h143l-196 -430h-125z" />
<glyph unicode="&#x137;" horiz-adv-x="911" d="M135 0l340 1470h154l-199 -856l131 7l371 403h178l-434 -475l194 -549h-161l-172 489l-138 -4l-110 -485h-154zM186 -580l179 430h143l-197 -430h-125z" />
<glyph unicode="&#x139;" horiz-adv-x="886" d="M160 0l327 1417h156l-295 -1278h557l-31 -139h-714zM629 1724l467 193l18 -133l-467 -176z" />
<glyph unicode="&#x13a;" horiz-adv-x="440" d="M143 0l340 1470h152l-338 -1470h-154zM492 1724l466 193l19 -133l-467 -176z" />
<glyph unicode="&#x13b;" horiz-adv-x="886" d="M160 0l327 1417h156l-295 -1278h557l-31 -139h-714zM246 -580l178 430h143l-196 -430h-125z" />
<glyph unicode="&#x13c;" horiz-adv-x="440" d="M-61 -580l178 430h143l-197 -430h-124zM143 0l340 1470h152l-338 -1470h-154z" />
<glyph unicode="&#x13d;" horiz-adv-x="927" d="M160 0l327 1417h156l-295 -1278h557l-31 -139h-714zM883 942l112 475h140l-113 -475h-139z" />
<glyph unicode="&#x13e;" horiz-adv-x="536" d="M143 0l340 1470h152l-338 -1470h-154zM633 942l112 475h140l-113 -475h-139z" />
<glyph unicode="&#x141;" horiz-adv-x="888" d="M129 592l201 125l162 700h155l-135 -588l303 191l47 -113l-389 -243l-121 -525h557l-30 -139h-715l127 549l-111 -70v2z" />
<glyph unicode="&#x142;" horiz-adv-x="552" d="M139 596l226 139l170 735h151l-143 -624l141 88l49 -111l-229 -143l-156 -680h-153l131 569l-133 -82z" />
<glyph unicode="&#x143;" horiz-adv-x="1292" d="M160 0l327 1417h279l213 -1255h39l289 1255h153l-327 -1417h-269l-221 1264h-41l-293 -1264h-149zM805 1724l467 193l18 -133l-467 -176z" />
<glyph unicode="&#x144;" horiz-adv-x="1019" d="M135 0l236 1024h149l-37 -178l45 51q43 49 125 98t160 49q119 0 180.5 -69.5t61.5 -180t-41 -274.5l-121 -520h-152l119 510q39 156 39 246q0 153 -139 153q-39 0 -86 -24q-113 -59 -209 -180l-21 -25l-157 -680h-152zM600 1339l467 193l14 -135l-467 -176z" />
<glyph unicode="&#x145;" horiz-adv-x="1292" d="M160 0l327 1417h279l213 -1255h39l289 1255h153l-327 -1417h-269l-221 1264h-41l-293 -1264h-149zM395 -580l178 430h144l-197 -430h-125z" />
<glyph unicode="&#x146;" horiz-adv-x="1019" d="M135 0l236 1024h149l-37 -178q18 23 48 55.5t117 87.5t165 55q119 0 180.5 -69.5t61.5 -180t-41 -274.5l-121 -520h-152l119 510q39 156 39 246q0 154 -139 153q-61 0 -140 -57t-128 -115l-48 -57l-157 -680h-152zM256 -580l178 430h144l-197 -430h-125z" />
<glyph unicode="&#x147;" horiz-adv-x="1292" d="M160 0l327 1417h279l213 -1255h39l289 1255h153l-327 -1417h-269l-221 1264h-41l-293 -1264h-149zM752 1896h151l119 -167l190 167h158l-321 -280h-97z" />
<glyph unicode="&#x148;" horiz-adv-x="1019" d="M135 0l236 1024h149l-37 -178q18 23 48 55.5t117 87.5t165 55q119 0 180.5 -69.5t61.5 -180t-41 -274.5l-121 -520h-152l119 510q39 156 39 246q0 154 -139 153q-61 0 -140 -57t-128 -115l-48 -57l-157 -680h-152zM565 1511h142l104 -182l184 182h154l-324 -309h-86z" />
<glyph unicode="&#x14a;" horiz-adv-x="1292" d="M160 0l327 1417h281l213 -1255h37l291 1255h151l-325 -1413q-31 -135 -54.5 -200.5t-71.5 -113.5t-114 -60.5t-186 -12.5l24 139q125 2 168 44t80 200h-119l-219 1264h-41l-293 -1264h-149z" />
<glyph unicode="&#x14b;" horiz-adv-x="1007" d="M133 0l240 1024h145l-35 -133q176 154 309.5 153.5t189.5 -50.5t62 -165q2 -12 3 -28q0 -90 -41 -271l-125 -530q-45 -188 -129 -283.5t-295 -197.5l-33 135q168 90 225.5 156.5t93.5 216.5l119 503q35 152 35 228t-36 107.5t-102.5 31.5t-141 -36t-119.5 -70l-45 -37 l-177 -754h-143z" />
<glyph unicode="&#x14c;" horiz-adv-x="1286" d="M233 422q0 244 85 485.5t243 386t375 144.5q440 0 440 -424q0 -277 -87 -524.5t-246.5 -378.5t-380 -131t-325 99t-104.5 343zM395 441.5q0 -189.5 65.5 -256t214 -66.5t249.5 82q139 115 213.5 344t74.5 459q0 154 -68.5 224t-208.5 70t-235 -75q-141 -117 -223 -354.5 t-82 -427zM719 1686l26 122h603l-29 -122h-600z" />
<glyph unicode="&#x14d;" horiz-adv-x="1011" d="M186 315q0 295 146.5 512t369.5 217q354 0 355 -348q0 -190 -60.5 -352t-181.5 -263t-278 -101q-350 0 -351 335zM340 313q0 -200 197 -200q164 0 265 173t101 412q0 98 -50 155.5t-151 57.5q-160 0 -261 -179t-101 -419zM502 1309l28 121h564l-31 -121h-561z" />
<glyph unicode="&#x14e;" horiz-adv-x="1286" d="M233 422q0 244 85 485.5t243 386t375 144.5q440 0 440 -424q0 -277 -87 -524.5t-246.5 -378.5t-380 -131t-325 99t-104.5 343zM395 441.5q0 -189.5 65.5 -256t214 -66.5t249.5 82q139 115 213.5 344t74.5 459q0 154 -68.5 224t-208.5 70t-235 -75q-141 -117 -223 -354.5 t-82 -427zM766 1829q0 29 6 61h135q-4 -20 -4 -52t27.5 -58.5t94.5 -26.5t119 38t70 99h136q-77 -260 -349 -260q-236 0 -235 199z" />
<glyph unicode="&#x14f;" horiz-adv-x="1011" d="M186 315q0 295 146.5 512t369.5 217q354 0 355 -348q0 -190 -60.5 -352t-181.5 -263t-278 -101q-350 0 -351 335zM340 313q0 -200 197 -200q164 0 265 173t101 412q0 98 -50 155.5t-151 57.5q-160 0 -261 -179t-101 -419zM532 1423q0 35 9 74h133q-6 -25 -6 -54.5 t26.5 -65.5t104.5 -36q156 0 200 156h134q-82 -283 -371 -283q-133 0 -189 76q-41 53 -41 133z" />
<glyph unicode="&#x150;" horiz-adv-x="1286" d="M233 422q0 244 85 485.5t243 386t375 144.5q440 0 440 -424q0 -277 -87 -524.5t-246.5 -378.5t-380 -131t-325 99t-104.5 343zM395 441.5q0 -189.5 65.5 -256t214 -66.5t249.5 82q139 115 213.5 344t74.5 459q0 154 -68.5 224t-208.5 70t-235 -75q-141 -117 -223 -354.5 t-82 -427zM707 1640l340 271l94 -66l-346 -264zM1096 1640l336 269l100 -66l-350 -264z" />
<glyph unicode="&#x151;" horiz-adv-x="1011" d="M186 315q0 295 146.5 512t369.5 217q354 0 355 -348q0 -190 -60.5 -352t-181.5 -263t-278 -101q-350 0 -351 335zM340 313q0 -200 197 -200q164 0 265 173t101 412q0 98 -50 155.5t-151 57.5q-160 0 -261 -179t-101 -419zM461 1276l344 283l88 -86l-352 -281zM834 1276 l346 285l88 -88l-355 -281z" />
<glyph unicode="&#x152;" horiz-adv-x="1757" d="M219 327q0 167 49 380q88 375 249 557t431 182q141 0 269 -21h788l-33 -153h-643l-117 -477h527l-33 -150l-524 4l-117 -495h641l-37 -156h-784q-207 -18 -281 -18q-197 0 -289 88q-96 92 -96 259zM377 387q0 -127 64.5 -190.5t211.5 -63.5q53 0 260 17l269 1128 q-104 14 -254 14q-205 0 -318.5 -138t-185.5 -445q-47 -195 -47 -322z" />
<glyph unicode="&#x153;" horiz-adv-x="1636" d="M180 270q0 117 35 256q63 266 183 392t358.5 126t283.5 -192q125 193 371 192q293 0 301 -268v-64.5t-26 -150.5l-35 -117l-631 5q-23 -103 -23 -156q0 -170 193 -170q143 0 297 12l57 6l-24 -129q-207 -33 -373 -32q-229 0 -275 172q-123 -172 -370 -172q-158 0 -236 61 q-86 66 -86 229zM332 270q4 -78 50 -113.5t141 -35.5t155.5 28.5t100.5 92t61 123.5q71 211 71 340q0 199 -192 198q-145 0 -225 -88t-121 -267t-41 -255v-23zM1049 573l489 -4q25 96 25 134v45q-2 152 -181 151q-129 0 -210.5 -78t-122.5 -248z" />
<glyph unicode="&#x154;" horiz-adv-x="1155" d="M160 0l327 1417h433q186 0 277 -80t91 -281.5t-109.5 -332.5t-254.5 -172l155 -551h-157l-146 530h-336l-125 -530h-155zM471 668h301q160 0 256 112.5t96 290.5q0 115 -51 162t-170 47h-291zM713 1724l467 193l18 -133l-467 -176z" />
<glyph unicode="&#x155;" horiz-adv-x="647" d="M135 0l238 1024h151l-37 -152q190 137 371 175l-41 -158q-111 -29 -297 -123l-61 -31l-170 -735h-154zM399 1339l467 193l15 -135l-467 -176z" />
<glyph unicode="&#x156;" horiz-adv-x="1155" d="M160 0l327 1417h433q186 0 277 -80t91 -281.5t-109.5 -332.5t-254.5 -172l155 -551h-157l-146 530h-336l-125 -530h-155zM336 -580l178 430h143l-196 -430h-125zM471 668h301q160 0 256 112.5t96 290.5q0 115 -51 162t-170 47h-291z" />
<glyph unicode="&#x157;" horiz-adv-x="647" d="M-59 -580l178 430h143l-196 -430h-125zM135 0l238 1024h151l-37 -152q190 137 371 175l-41 -158q-111 -29 -297 -123l-61 -31l-170 -735h-154z" />
<glyph unicode="&#x158;" horiz-adv-x="1155" d="M160 0l327 1417h433q186 0 277 -80t91 -281.5t-109.5 -332.5t-254.5 -172l155 -551h-157l-146 530h-336l-125 -530h-155zM471 668h301q160 0 256 112.5t96 290.5q0 115 -51 162t-170 47h-291zM639 1896h152l118 -167l191 167h157l-321 -280h-96z" />
<glyph unicode="&#x159;" horiz-adv-x="647" d="M135 0l238 1024h151l-37 -152q190 137 371 175l-41 -158q-111 -29 -297 -123l-61 -31l-170 -735h-154zM387 1511h141l105 -182l184 182h154l-324 -309h-86z" />
<glyph unicode="&#x15a;" horiz-adv-x="1021" d="M115 33l26 123q238 -37 395.5 -37t246.5 87t89 249q0 84 -45 123.5t-198.5 93t-225 119t-71.5 198.5q0 209 134 329t361 120q168 0 328 -43l53 -15l-26 -116q-217 37 -366.5 36.5t-236.5 -77t-87 -222.5q0 -82 50 -118.5t208.5 -93t221 -122t62.5 -198.5 q0 -229 -137 -359t-371 -130q-174 0 -352 40zM702 1724l467 193l19 -133l-467 -176z" />
<glyph unicode="&#x15b;" horiz-adv-x="878" d="M104 27l29 118q188 -33 312 -32.5t198 53.5t74 156q0 57 -39 80.5t-169 55t-193.5 77t-63.5 141.5q0 164 114.5 266t288.5 102q154 0 291 -32l47 -11l-30 -118q-195 29 -313 28.5t-181 -58.5t-63 -140q0 -49 36.5 -74t171 -59.5t197.5 -78.5t63 -149q0 -180 -124.5 -276 t-321.5 -96q-131 0 -276 36zM553 1339l467 193l14 -135l-467 -176z" />
<glyph unicode="&#x15c;" horiz-adv-x="1021" d="M115 33l26 123q238 -37 395.5 -37t246.5 87t89 249q0 84 -45 123.5t-198.5 93t-225 119t-71.5 198.5q0 209 134 329t361 120q168 0 328 -43l53 -15l-26 -116q-217 37 -366.5 36.5t-236.5 -77t-87 -222.5q0 -82 50 -118.5t208.5 -93t221 -122t62.5 -198.5 q0 -229 -137 -359t-371 -130q-174 0 -352 40zM571 1624l336 283h84l197 -283h-141l-111 166l-197 -166h-168z" />
<glyph unicode="&#x15d;" horiz-adv-x="878" d="M104 27l29 118q188 -33 312 -32.5t198 53.5t74 156q0 57 -39 80.5t-169 55t-193.5 77t-63.5 141.5q0 164 114.5 266t288.5 102q154 0 291 -32l47 -11l-30 -118q-195 29 -313 28.5t-181 -58.5t-63 -140q0 -49 36.5 -74t171 -59.5t197.5 -78.5t63 -149q0 -180 -124.5 -276 t-321.5 -96q-131 0 -276 36zM436 1202l318 309h82l178 -309h-142l-98 176l-182 -176h-156z" />
<glyph unicode="&#x15e;" horiz-adv-x="1021" d="M115 33l26 123q238 -37 395.5 -37t246.5 87t89 249q0 84 -45 123.5t-198.5 93t-225 119t-71.5 198.5q0 209 134 329t361 120q168 0 328 -43l53 -15l-26 -116q-217 37 -366.5 36.5t-236.5 -77t-87 -222.5q0 -82 50 -118.5t208.5 -93t221 -122t62.5 -198.5 q0 -225 -133 -355t-358 -134l-19 -72h11q174 0 174 -113q0 -23 -7 -49q-39 -178 -221 -178q-88 0 -141 10l-23 4l27 105q76 -6 127 -6q84 0 104 73q10 39 -9 53.5t-60 14.5h-80l35 160q-164 8 -297 38z" />
<glyph unicode="&#x15f;" horiz-adv-x="878" d="M104 27l29 118q188 -33 312 -32.5t198 53.5t74 156q0 57 -39 80.5t-169 55t-193.5 77t-63.5 141.5q0 164 114.5 266t288.5 102q154 0 291 -32l47 -11l-30 -118q-195 29 -313 28.5t-181 -58.5t-63 -140q0 -49 36.5 -74t171 -59.5t197.5 -78.5t63 -149q0 -176 -117.5 -271 t-305.5 -101l-19 -72h10q174 0 174 -113q0 -23 -6 -49q-39 -178 -221 -178q-88 0 -143 10l-21 4l27 105q76 -6 127 -6q84 0 104 73q10 39 -9 53.5t-60 14.5h-80l37 160q-123 8 -232 34z" />
<glyph unicode="&#x160;" horiz-adv-x="1021" d="M115 33l26 123q238 -37 395.5 -37t246.5 87t89 249q0 84 -45 123.5t-198.5 93t-225 119t-71.5 198.5q0 209 134 329t361 120q168 0 328 -43l53 -15l-26 -116q-217 37 -366.5 36.5t-236.5 -77t-87 -222.5q0 -82 50 -118.5t208.5 -93t221 -122t62.5 -198.5 q0 -229 -137 -359t-371 -130q-174 0 -352 40zM653 1903h152l119 -168l190 168h158l-322 -281h-96z" />
<glyph unicode="&#x161;" horiz-adv-x="878" d="M104 27l29 118q188 -33 312 -32.5t198 53.5t74 156q0 57 -39 80.5t-169 55t-193.5 77t-63.5 141.5q0 164 114.5 266t288.5 102q154 0 291 -32l47 -11l-30 -118q-195 29 -313 28.5t-181 -58.5t-63 -140q0 -49 36.5 -74t171 -59.5t197.5 -78.5t63 -149q0 -180 -124.5 -276 t-321.5 -96q-131 0 -276 36zM504 1511h141l105 -182l184 182h153l-323 -309h-86z" />
<glyph unicode="&#x162;" horiz-adv-x="960" d="M289 -418l26 105q76 -6 127 -6q84 0 105 73q10 39 -9.5 53.5t-60.5 14.5h-80l41 178h-39l295 1278h-379l33 139h916l-33 -139h-381l-295 -1278h-37l-22 -92h10q174 0 174 -113q0 -23 -6 -49q-39 -178 -221 -178q-88 0 -142 10z" />
<glyph unicode="&#x163;" horiz-adv-x="651" d="M213 -418l27 105q76 -6 127 -6q84 0 104 73q10 39 -9.5 53.5t-60.5 14.5h-79l38 170q-129 35 -129 182q0 80 33 211l119 506h-135l35 133h133l71 303h154l-74 -303h287l-33 -133h-286l-119 -514q-25 -98 -25 -170q0 -94 103 -94l157 12l-10 -117q-106 -29 -199 -28h-4 l-18 -72h10q174 0 174 -113q0 -23 -6 -49q-39 -178 -221 -178q-88 0 -144 10z" />
<glyph unicode="&#x164;" horiz-adv-x="960" d="M315 1278l33 139h916l-33 -139h-381l-295 -1278h-156l295 1278h-379zM578 1896h151l119 -167l190 167h158l-322 -280h-96z" />
<glyph unicode="&#x165;" horiz-adv-x="825" d="M231 168q0 86 33 217l119 506h-135l35 133h133l71 303h154l-74 -303h287l-33 -133h-286l-119 -514q-25 -98 -25 -170q0 -94 103 -94l157 12l-10 -117q-106 -29 -202.5 -28.5t-152 51.5t-55.5 137zM913 942l113 475h139l-112 -475h-140z" />
<glyph unicode="&#x166;" horiz-adv-x="970" d="M233 604l33 144h309l123 530h-379l33 139h916l-33 -139h-381l-123 -530h320l-37 -144h-316l-139 -604h-156l140 604h-310z" />
<glyph unicode="&#x167;" horiz-adv-x="659" d="M190 522l31 133h113l55 236h-135l35 133h133l72 303h153l-74 -303h287l-33 -133h-286l-56 -236h275l-33 -133h-272l-33 -145q-25 -98 -25 -170q0 -94 103 -94l157 12l-10 -117q-106 -29 -202.5 -28.5t-151.5 51.5t-55 137t32 217l31 137h-111z" />
<glyph unicode="&#x168;" horiz-adv-x="1216" d="M231 274q0 100 23 187l221 956h158l-225 -973q-21 -81 -21 -149q0 -176 262 -176q162 0 243 75.5t118 237.5l227 985h158l-228 -985q-53 -233 -177 -342.5t-335 -109.5q-424 0 -424 294zM655 1767q137 123 215 123q55 0 159 -56t126 -56q39 0 137 69l33 25l6 -109 q-129 -121 -205 -121q-49 0 -153.5 57.5t-128.5 57.5q-47 0 -150 -74l-35 -26z" />
<glyph unicode="&#x169;" horiz-adv-x="1019" d="M201 229.5q0 110.5 41 274.5l120 520h152l-119 -510q-39 -156 -39 -246q0 -154 140 -153q61 0 140 57t126 115l49 57l158 680h151l-235 -1024h-150l37 178q-18 -23 -48 -55.5t-117 -87.5t-165 -55q-119 0 -180 69.5t-61 180zM496 1382q127 109 202 109q49 0 142.5 -49 t113.5 -49q39 0 127 61l29 23l10 -115q-116 -105 -192 -105q-43 0 -139.5 49.5t-120.5 49.5q-41 0 -136 -66l-30 -22z" />
<glyph unicode="&#x16a;" horiz-adv-x="1216" d="M231 274q0 100 23 187l221 956h158l-225 -973q-21 -81 -21 -149q0 -176 262 -176q162 0 243 75.5t118 237.5l227 985h158l-228 -985q-53 -233 -177 -342.5t-335 -109.5q-424 0 -424 294zM678 1686l27 122h602l-29 -122h-600z" />
<glyph unicode="&#x16b;" horiz-adv-x="1019" d="M201 229.5q0 110.5 41 274.5l120 520h152l-119 -510q-39 -156 -39 -246q0 -154 140 -153q61 0 140 57t126 115l49 57l158 680h151l-235 -1024h-150l37 178q-18 -23 -48 -55.5t-117 -87.5t-165 -55q-119 0 -180 69.5t-61 180zM500 1309l28 121h564l-31 -121h-561z" />
<glyph unicode="&#x16c;" horiz-adv-x="1216" d="M231 274q0 100 23 187l221 956h158l-225 -973q-21 -81 -21 -149q0 -176 262 -176q162 0 243 75.5t118 237.5l227 985h158l-228 -985q-53 -233 -177 -342.5t-335 -109.5q-424 0 -424 294zM719 1829q0 29 6 61h135q-4 -20 -4 -52t27.5 -58.5t94 -26.5t119 38t70.5 99h136 q-77 -260 -349 -260q-236 0 -235 199z" />
<glyph unicode="&#x16d;" horiz-adv-x="1019" d="M201 229.5q0 110.5 41 274.5l120 520h152l-119 -510q-39 -156 -39 -246q0 -154 140 -153q61 0 140 57t126 115l49 57l158 680h151l-235 -1024h-150l37 178q-18 -23 -48 -55.5t-117 -87.5t-165 -55q-119 0 -180 69.5t-61 180zM530 1423q0 35 9 74h133q-6 -25 -6 -54.5 t26.5 -65.5t104.5 -36q156 0 200 156h133q-82 -283 -370 -283q-133 0 -191 76q-39 53 -39 133z" />
<glyph unicode="&#x16e;" horiz-adv-x="1216" d="M231 274q0 100 23 187l221 956h158l-225 -973q-21 -81 -21 -149q0 -176 262 -176q162 0 243 75.5t118 237.5l227 985h158l-228 -985q-53 -233 -177 -342.5t-335 -109.5q-424 0 -424 294zM784 1648q0 40 11 74q27 102 96.5 153.5t166.5 51.5t142 -51q31 -33 31 -76 q-1 -147 -101 -227q-70 -55 -169 -55t-146 55q-31 35 -31 75zM893 1689.5q0 -18.5 19.5 -42t70.5 -23.5q113 0 135 98q2 14 2 35t-20.5 42.5t-67.5 21.5q-110 -1 -135 -99q-4 -14 -4 -32.5z" />
<glyph unicode="&#x16f;" horiz-adv-x="1019" d="M201 229.5q0 110.5 41 274.5l120 520h152l-119 -510q-39 -156 -39 -246q0 -154 140 -153q61 0 140 57t126 115l49 57l158 680h151l-235 -1024h-150l37 178q-18 -23 -48 -55.5t-117 -87.5t-165 -55q-119 0 -180 69.5t-61 180zM602 1245q0 133 90 213q63 57 146.5 57.5 t116 -41.5t32.5 -100q0 -16 -2 -33q-8 -100 -76.5 -163.5t-160 -63.5t-125.5 57q-20 35 -21 74zM696 1286.5q0 -18.5 17.5 -45.5t58.5 -27t76 29q47 41 47 96q0 23 -17.5 47.5t-58.5 24.5t-74.5 -26.5t-41 -53t-7.5 -45z" />
<glyph unicode="&#x170;" horiz-adv-x="1216" d="M231 274q0 100 23 187l221 956h158l-225 -973q-21 -81 -21 -149q0 -176 262 -176q162 0 243 75.5t118 237.5l227 985h158l-228 -985q-53 -233 -177 -342.5t-335 -109.5q-424 0 -424 294zM643 1608l340 270l94 -66l-346 -264zM1032 1608l336 268l100 -66l-350 -264z" />
<glyph unicode="&#x171;" horiz-adv-x="1019" d="M201 229.5q0 110.5 41 274.5l120 520h152l-119 -510q-39 -156 -39 -246q0 -154 140 -153q61 0 140 57t126 115l49 57l158 680h151l-235 -1024h-150l37 178q-18 -23 -48 -55.5t-117 -87.5t-165 -55q-119 0 -180 69.5t-61 180zM506 1276l344 283l88 -86l-352 -281z M879 1276l346 285l88 -88l-355 -281z" />
<glyph unicode="&#x172;" horiz-adv-x="1218" d="M233 274q0 100 23 187l221 956h158l-225 -973q-20 -82 -21 -149q0 -176 262 -176q162 0 243 75.5t118 237.5l227 985h158l-228 -985q-53 -233 -177 -342.5t-353 -109.5q-8 0 -20.5 1t-18.5 1q45 37 53 43l129 -17q-59 -47 -123.5 -122.5t-64.5 -125.5q0 -41 49 -41l98 11 l-14 -129q-92 -18 -158 -19q-143 0 -143 129q0 111 174 271q-172 6 -269.5 78.5t-97.5 213.5z" />
<glyph unicode="&#x173;" horiz-adv-x="1019" d="M201 229.5q0 110.5 41 274.5l120 520h152l-119 -510q-39 -156 -39 -246q0 -154 140 -153q61 0 140 57t126 115l49 57l158 680h151l-235 -1024q-61 -43 -126 -117t-65 -123q0 -41 49 -41l99 11l-15 -129q-92 -18 -157 -19q-143 0 -144 129q0 70 66.5 153t144.5 146l35 168 q-18 -23 -48 -55.5t-117 -87.5t-165 -55q-119 0 -180 69.5t-61 180z" />
<glyph unicode="&#x174;" horiz-adv-x="1697" d="M328 0l55 1417h156l-64 -1272h53l551 1252h172l-39 -1252h54l536 1272h158l-610 -1417h-273l39 1167l-508 -1167h-280zM893 1618l336 283h84l196 -283h-141l-111 166l-196 -166h-168z" />
<glyph unicode="&#x175;" horiz-adv-x="1497" d="M281 0l14 1024h154l-19 -891h39l420 871h180l8 -871h39l402 891h155l-465 -1024h-272l-6 805l-383 -805h-266zM709 1202l317 309h82l178 -309h-141l-98 176l-183 -176h-155z" />
<glyph unicode="&#x176;" horiz-adv-x="1009" d="M348 1417h160l166 -661l469 661h170l-600 -811l-142 -606h-149l143 618zM557 1618l336 283h84l197 -283h-142l-110 166l-197 -166h-168z" />
<glyph unicode="&#x177;" horiz-adv-x="929" d="M215 -453l236 453h-140l-26 1024h151l17 -893h61l447 893h157l-747 -1477h-156zM442 1202l318 309h82l178 -309h-141l-99 176l-182 -176h-156z" />
<glyph unicode="&#x178;" horiz-adv-x="1009" d="M348 1417h160l166 -661l469 661h170l-600 -811l-142 -606h-149l143 618zM610 1665l43 190h127l-47 -190h-123zM993 1665l45 190h127l-47 -190h-125z" />
<glyph unicode="&#x179;" horiz-adv-x="1013" d="M78 0l45 203l917 1020l13 55h-676l33 139h852l-50 -209l-917 -1020l-12 -49h680l-33 -139h-852zM670 1724l467 193l18 -133l-467 -176z" />
<glyph unicode="&#x17a;" horiz-adv-x="856" d="M78 0l24 131l697 760h-516l32 133h699l-29 -131l-698 -760h522l-31 -133h-700zM514 1339l467 193l14 -135l-467 -176z" />
<glyph unicode="&#x17b;" horiz-adv-x="1013" d="M78 0l45 203l917 1020l13 55h-676l33 139h852l-50 -209l-917 -1020l-12 -49h680l-33 -139h-852zM807 1700l41 184h131l-43 -184h-129z" />
<glyph unicode="&#x17c;" horiz-adv-x="856" d="M78 0l24 131l697 760h-516l32 133h699l-29 -131l-698 -760h522l-31 -133h-700zM627 1239l43 182h131l-43 -182h-131z" />
<glyph unicode="&#x17d;" horiz-adv-x="1013" d="M78 0l45 203l917 1020l13 55h-676l33 139h852l-50 -209l-917 -1020l-12 -49h680l-33 -139h-852zM623 1894h151l119 -168l190 168h158l-321 -280h-97z" />
<glyph unicode="&#x17e;" horiz-adv-x="856" d="M78 0l24 131l697 760h-516l32 133h699l-29 -131l-698 -760h522l-31 -133h-700zM467 1511h141l105 -182l184 182h154l-324 -309h-86z" />
<glyph unicode="&#x192;" d="M53 -481l31 131q78 -6 139 -6q127 0 185 227l206 864h-211l33 148h213l25 104q61 238 142 328t225.5 90t224.5 -19l-33 -135q-141 8 -199 9q-88 0 -134 -70t-83 -234l-18 -73h321l-35 -148h-319l-209 -872q-47 -199 -132 -280t-226 -81q-59 0 -125 13z" />
<glyph unicode="&#x1fa;" horiz-adv-x="1134" d="M49 0l684 1370q-25 33 -24.5 72t8.5 74q27 102 96.5 153t166.5 51t142 -51q31 -33 31 -76t-8 -77q-27 -94 -84 -144l29 -1372h-156l-12 362h-531l-182 -362h-160zM457 500h467l-15 778h-61zM778 1913l467 192l15 -135l-467 -176zM815 1483q0 -19 19.5 -42.5t70.5 -23.5 h10q102 4 125 99q2 14 2 34.5t-20.5 42t-67.5 21.5q-110 0 -135 -98q-4 -14 -4 -33z" />
<glyph unicode="&#x1fb;" horiz-adv-x="1024" d="M182 285q0 170 54.5 339t177.5 294.5t284 125.5q125 0 342 -36l78 -15l-155 -665q-29 -115 -50 -271l-8 -53l-149 -6q29 176 37 219q-10 -18 -60.5 -70.5t-89.5 -84t-94.5 -57t-104.5 -25.5q-262 0 -262 305zM340 309.5q0 -110.5 35 -153.5t104.5 -43t152.5 66.5 t138 133.5l53 68l117 502q-143 29 -246.5 28.5t-189.5 -106t-125 -245.5t-39 -250.5zM631 1245q0 133 90 213q63 57 146 57.5t116 -41.5t33 -100q0 -16 -2 -33q-8 -100 -77 -163.5t-160 -63.5t-126 57q-20 35 -20 74zM690 1706l467 190l17 -149l-467 -174zM725 1286.5 q0 -18.5 17.5 -45.5t58.5 -27t76 29q47 41 47 96q0 23 -17.5 47.5t-58.5 24.5t-75 -26.5t-41 -53t-7 -45z" />
<glyph unicode="&#x1fc;" horiz-adv-x="1597" d="M51 0l707 1425h1085l-31 -147l-649 4l-116 -491h532l-31 -142h-534l-119 -502h645l-31 -147h-796l84 362h-412l-184 -362h-150zM453 506h378l185 772h-180zM1102 1724l467 193l18 -133l-467 -176z" />
<glyph unicode="&#x1fd;" horiz-adv-x="1533" d="M127 190.5q0 57.5 10 104.5q27 141 117 208.5t234.5 91t314.5 30.5q31 90 31 149q0 121 -123 121q-147 0 -310 -16l-59 -7l25 142q233 31 352 30q225 0 254 -151q125 152 340 151q289 0 295 -276q0 -109 -29 -211l-31 -113l-624 5q-21 -89 -21 -152q0 -174 184 -174 q147 0 297 12l58 6l-27 -129q-207 -33 -385 -32.5t-248 110.5q-90 -39 -224 -74.5t-218 -35.5q-129 0 -180 94q-33 59 -33 116.5zM285 242q0 -125 104 -125q127 0 361 78q-6 29 -6.5 94t34.5 211q-147 -12 -282 -29q-168 -27 -205 -172q-6 -30 -6 -57zM868 1339l467 193 l15 -135l-467 -176zM950 573l486 -4q23 86 22.5 126t-0.5 50q-6 160 -180 160q-127 0 -207 -80t-121 -252z" />
<glyph unicode="&#x1fe;" horiz-adv-x="1290" d="M143 -182l185 272q-92 98 -92 337t85 480.5t242.5 386t374.5 144.5q164 0 266 -58l172 252l97 -43l-187 -274q92 -109 92 -301q0 -276 -87 -524t-246.5 -379t-374.5 -131q-162 0 -260 49l-181 -262zM397 414q0 -117 29 -176l690 1013q-66 47 -192.5 47t-221.5 -75 q-141 -117 -223 -354.5t-82 -454.5zM498 158q66 -39 196.5 -39t231.5 82q139 115 213.5 344t74.5 459q0 104 -28 163l-334 -493zM842 1724l467 193l20 -148l-469 -176z" />
<glyph unicode="&#x1ff;" horiz-adv-x="1011" d="M129 -188l154 241q-96 80 -97 262q0 295 146.5 512t369.5 217q106 0 181 -32l139 227l92 -41l-151 -237q94 -88 94 -271.5t-60.5 -345.5t-181.5 -263t-278 -101q-102 0 -175 26l-143 -233zM340 313q0 -76 29 -123l217 340l221 359q-46 22 -105 22q-160 0 -261 -179 t-101 -419zM440 129q44 -16 97 -16q164 0 265 173t101 412q0 72 -29 123l-210 -332zM588 1339l467 193l14 -135l-467 -176z" />
<glyph unicode="&#x218;" horiz-adv-x="1021" d="M115 33l26 123q238 -37 395.5 -37t246.5 87t89 249q0 84 -45 123.5t-198.5 93t-225 119t-71.5 198.5q0 209 134 329t361 120q168 0 328 -43l53 -15l-26 -116q-217 37 -366.5 36.5t-236.5 -77t-87 -222.5q0 -82 50 -118.5t208.5 -93t221 -122t62.5 -198.5 q0 -229 -137 -359t-371 -130q-174 0 -352 40zM254 -580l178 430h143l-196 -430h-125z" />
<glyph unicode="&#x219;" horiz-adv-x="876" d="M102 27l29 118q188 -33 312 -32.5t198 53.5t74 156q0 57 -39 80.5t-169 55t-193.5 77t-63.5 141.5q0 164 114.5 266t288.5 102q154 0 289 -32l49 -11l-30 -118q-195 29 -313 28.5t-181.5 -58.5t-63.5 -140q0 -49 37 -74t171 -59.5t197.5 -78.5t63.5 -149 q0 -180 -124.5 -276t-321.5 -96q-131 0 -279 36zM174 -580l178 430h144l-197 -430h-125z" />
<glyph unicode="&#x21a;" horiz-adv-x="960" d="M203 -580l178 430h143l-196 -430h-125zM315 1278l33 139h916l-33 -139h-381l-295 -1278h-156l295 1278h-379z" />
<glyph unicode="&#x21b;" horiz-adv-x="651" d="M111 -580l178 430h143l-196 -430h-125zM231 168q0 86 33 217l119 506h-135l35 133h133l71 303h154l-74 -303h287l-33 -133h-286l-119 -514q-25 -98 -25 -170q0 -94 103 -94l157 12l-10 -117q-106 -29 -202.5 -28.5t-152 51.5t-55.5 137z" />
<glyph unicode="&#x2c6;" horiz-adv-x="1619" d="M786 1202l318 309h82l178 -309h-141l-99 176l-182 -176h-156z" />
<glyph unicode="&#x2da;" horiz-adv-x="1619" d="M635 1245q0 133 90 213q63 57 146 57.5t116 -41.5t33 -100q0 -16 -2 -33q-8 -100 -77 -163.5t-160 -63.5t-126 57q-20 35 -20 74zM729 1286.5q0 -18.5 17.5 -45.5t58.5 -27t76 29q47 41 47 96q0 23 -17.5 47.5t-58.5 24.5t-75 -26.5t-41 -53t-7 -45z" />
<glyph unicode="&#x2dc;" horiz-adv-x="874" d="M449 1382q127 109 202 109q49 0 142.5 -49t113.5 -49q39 0 125 61l31 23l10 -115q-116 -105 -192 -105q-43 0 -139.5 49.5t-118.5 49.5q-43 0 -138 -66l-30 -22z" />
<glyph unicode="&#x3c0;" d="M176 864v129q121 31 291 31h481q133 0 236 20l33 9v-129q-57 -25 -197 -29v-580q0 -115 35 -152.5t143 -37.5v-133q-203 0 -267.5 63t-64.5 260v576h-319l-58 -891h-155l63 891q-111 0 -196 -21z" />
<glyph unicode="&#x1e80;" horiz-adv-x="1697" d="M328 0l55 1417h156l-64 -1272h53l551 1252h172l-39 -1252h54l536 1272h158l-610 -1417h-273l39 1167l-508 -1167h-280zM965 1774l75 131l379 -193l-69 -115z" />
<glyph unicode="&#x1e81;" horiz-adv-x="1497" d="M281 0l14 1024h154l-19 -891h39l420 871h180l8 -871h39l402 891h155l-465 -1024h-272l-6 805l-383 -805h-266zM717 1397l74 121l378 -191l-67 -106z" />
<glyph unicode="&#x1e82;" horiz-adv-x="1697" d="M328 0l55 1417h156l-64 -1272h53l551 1252h172l-39 -1252h54l536 1272h158l-610 -1417h-273l39 1167l-508 -1167h-280zM1016 1724l467 193l18 -133l-467 -176z" />
<glyph unicode="&#x1e83;" horiz-adv-x="1497" d="M281 0l14 1024h154l-19 -891h39l420 871h180l8 -871h39l402 891h155l-465 -1024h-272l-6 805l-383 -805h-266zM817 1339l467 193l14 -135l-467 -176z" />
<glyph unicode="&#x1e84;" horiz-adv-x="1697" d="M328 0l55 1417h156l-64 -1272h53l551 1252h172l-39 -1252h54l536 1272h158l-610 -1417h-273l39 1167l-508 -1167h-280zM958 1667l43 191h127l-47 -191h-123zM1341 1667l45 191h127l-47 -191h-125z" />
<glyph unicode="&#x1e85;" horiz-adv-x="1497" d="M281 0l14 1024h154l-19 -891h39l420 871h180l8 -871h39l402 891h155l-465 -1024h-272l-6 805l-383 -805h-266zM764 1270l43 190h127l-45 -190h-125zM1139 1270l41 190h127l-45 -190h-123z" />
<glyph unicode="&#x1eab;" horiz-adv-x="1024" d="M182 285q0 170 54.5 339t177.5 294.5t284 125.5q125 0 342 -36l78 -15l-155 -665q-29 -115 -50 -271l-8 -53l-149 -6q29 176 37 219q-10 -18 -60.5 -70.5t-89.5 -84t-94.5 -57t-104.5 -25.5q-262 0 -262 305zM340 309.5q0 -110.5 35 -153.5t104.5 -43t152.5 66.5 t138 133.5l53 68l117 502q-143 29 -246.5 28.5t-189.5 -106t-125 -245.5t-39 -250.5zM516 1141l318 309h81l179 -309h-142l-98 176l-182 -176h-156zM602 1636q127 109 203 109q49 0 142 -49t114 -49q39 0 127 61l29 23l10 -115q-117 -105 -193 -105q-43 0 -139 49.5 t-121 49.5q-41 0 -135 -66l-31 -22z" />
<glyph unicode="&#x1eb0;" horiz-adv-x="1134" d="M49 0l707 1417h305l29 -1417h-156l-12 362h-531l-182 -362h-160zM457 500h467l-15 778h-61zM700 1747q0 29 7 61h135q-4 -20 -4 -52t27.5 -58.5t94 -26.5t118.5 38t71 99h135q-76 -260 -348 -260q-236 0 -236 199zM829 2097l74 121l379 -190l-68 -107z" />
<glyph unicode="&#x1ec5;" horiz-adv-x="946" d="M186 291q0 285 129 508q66 111 175.5 178t246.5 67q303 0 303 -249q0 -182 -137 -255t-436 -73h-105q-23 -80 -22.5 -168t53.5 -136t131 -48q145 0 299 32l51 13l-12 -121q-182 -59 -350 -59q-326 0 -326 311zM383 588h113q209 0 301 44t92 161q0 123 -158 122 q-252 0 -348 -327zM477 1141l318 309h82l178 -309h-142l-98 176l-182 -176h-156zM563 1636q127 109 203 109q49 0 142 -49t114 -49q39 0 125 61l31 23l10 -115q-117 -105 -193 -105q-43 0 -139 49.5t-119 49.5q-43 0 -137 -66l-31 -22z" />
<glyph unicode="&#x1ed7;" horiz-adv-x="1011" d="M186 315q0 295 146.5 512t369.5 217q354 0 355 -348q0 -190 -60.5 -352t-181.5 -263t-278 -101q-350 0 -351 335zM340 313q0 -200 197 -200q164 0 265 173t101 412q0 98 -50 155.5t-151 57.5q-160 0 -261 -179t-101 -419zM475 1141l318 309h81l179 -309h-142l-98 176 l-182 -176h-156zM573 1636q127 109 203 109q49 0 142.5 -49t113.5 -49q39 0 127 61l29 23l10 -115q-116 -105 -192 -105q-43 0 -139.5 49.5t-121.5 49.5q-41 0 -135 -66l-30 -22z" />
<glyph unicode="&#x1ef2;" horiz-adv-x="1009" d="M348 1417h160l166 -661l469 661h170l-600 -811l-142 -606h-149l143 618zM623 1774l75 131l379 -193l-69 -115z" />
<glyph unicode="&#x1ef3;" horiz-adv-x="929" d="M215 -453l236 453h-140l-26 1024h151l17 -893h61l447 893h157l-747 -1477h-156zM442 1397l74 121l379 -191l-68 -106z" />
<glyph unicode="&#x1ef8;" horiz-adv-x="1009" d="M348 1417h160l166 -661l469 661h170l-600 -811l-142 -606h-149l143 618zM594 1784q127 109 203 108q49 0 142 -49t114 -49q39 0 127 61l28 23l11 -115q-117 -104 -193 -104q-43 0 -139 49t-121 49q-41 0 -135 -65l-31 -23z" />
<glyph unicode="&#x1ef9;" horiz-adv-x="929" d="M215 -453l236 453h-140l-26 1024h151l17 -893h61l447 893h157l-747 -1477h-156zM469 1382q127 109 203 109q49 0 142 -49t114 -49q39 0 125 61l30 23l11 -115q-117 -105 -193 -105q-43 0 -139 49.5t-119 49.5q-43 0 -137 -66l-31 -22z" />
<glyph unicode="&#x2000;" horiz-adv-x="1109" />
<glyph unicode="&#x2001;" horiz-adv-x="2218" />
<glyph unicode="&#x2002;" horiz-adv-x="1109" />
<glyph unicode="&#x2003;" horiz-adv-x="2218" />
<glyph unicode="&#x2004;" horiz-adv-x="739" />
<glyph unicode="&#x2005;" horiz-adv-x="554" />
<glyph unicode="&#x2006;" horiz-adv-x="369" />
<glyph unicode="&#x2007;" horiz-adv-x="369" />
<glyph unicode="&#x2008;" horiz-adv-x="277" />
<glyph unicode="&#x2009;" horiz-adv-x="443" />
<glyph unicode="&#x200a;" horiz-adv-x="123" />
<glyph unicode="&#x2010;" horiz-adv-x="690" d="M201 477l35 141h505l-34 -141h-506z" />
<glyph unicode="&#x2011;" horiz-adv-x="690" d="M201 477l35 141h505l-34 -141h-506z" />
<glyph unicode="&#x2012;" horiz-adv-x="690" d="M201 477l35 141h505l-34 -141h-506z" />
<glyph unicode="&#x2013;" horiz-adv-x="1216" d="M223 481v135h1024v-135h-1024z" />
<glyph unicode="&#x2014;" horiz-adv-x="2240" d="M223 481v135h2048v-135h-2048z" />
<glyph unicode="&#x2018;" horiz-adv-x="370" d="M289 958l227 457h115l-187 -457h-155z" />
<glyph unicode="&#x2019;" horiz-adv-x="370" d="M293 961l186 456h156l-227 -456h-115z" />
<glyph unicode="&#x201a;" horiz-adv-x="352" d="M-29 -274l187 456h155l-227 -456h-115z" />
<glyph unicode="&#x201c;" horiz-adv-x="692" d="M287 961l227 456h115l-187 -456h-155zM610 961l228 456h114l-186 -456h-156z" />
<glyph unicode="&#x201d;" horiz-adv-x="694" d="M293 961l186 456h156l-227 -456h-115zM616 961l187 456h155l-227 -456h-115z" />
<glyph unicode="&#x201e;" horiz-adv-x="665" d="M-59 -276l227 456h115l-187 -456h-155zM281 -276l227 456h115l-187 -456h-155z" />
<glyph unicode="&#x2020;" horiz-adv-x="909" d="M258 862l35 158l323 -4l93 389h143l-90 -385h323l-34 -158l-326 2l-242 -1018h-141l238 1016h-322z" />
<glyph unicode="&#x2021;" horiz-adv-x="985" d="M147 231l35 156l326 -2l113 477h-322l35 158l323 -4l93 389h143l-90 -385h323l-36 -158l-324 2l-113 -477h324l-37 -156l-324 2l-92 -387h-141l90 385h-326z" />
<glyph unicode="&#x2022;" horiz-adv-x="993" d="M358 217v586h512v-586h-512z" />
<glyph unicode="&#x2026;" horiz-adv-x="1310" d="M96 0l54 227h155l-53 -227h-156zM580 0l53 227h155l-53 -227h-155zM1061 0l53 227h156l-53 -227h-156z" />
<glyph unicode="&#x202f;" horiz-adv-x="443" />
<glyph unicode="&#x2030;" horiz-adv-x="1671" d="M316 1029q0 56 16 124q70 283 295 283q172 0 172 -166q0 -49 -17 -117q-35 -145 -113.5 -218t-184 -73t-148.5 72q-20 39 -20 95zM319 8l744 1444l104 -29l-743 -1441zM440 1055q0 -86 70 -86q57 0 91 44t54.5 121.5t20.5 116.5q0 80 -76 80q-98 0 -141 -162 q-18 -74 -19 -114zM682 167q0 56 16 124q72 282 295 282q172 0 172 -165q0 -51 -16 -119q-37 -143 -114 -216t-183.5 -73t-146.5 74q-23 37 -23 93zM809 190q0 -86 68 -86q102 0 149 185q14 57 14 98q0 80 -71 80q-55 0 -89 -42t-52.5 -118t-18.5 -117zM1210 167 q0 56 17 124q72 282 295 282q172 0 172 -165q0 -51 -17 -119q-37 -143 -113.5 -216t-183 -73t-147.5 74q-23 37 -23 93zM1335 193q0 -88 70 -89q55 0 89 45.5t54.5 122t20.5 115.5q0 80 -74 80q-53 0 -87 -42t-53.5 -118t-19.5 -114z" />
<glyph unicode="&#x2039;" horiz-adv-x="524" d="M164 469l29 78l436 291l-45 -158l-269 -178l181 -197l-41 -141z" />
<glyph unicode="&#x203a;" horiz-adv-x="526" d="M129 164l45 158l268 178l-180 196l41 142l291 -306l-29 -77z" />
<glyph unicode="&#x2044;" horiz-adv-x="43" d="M-315 0l874 1417l143 -53l-874 -1415z" />
<glyph unicode="&#x205f;" horiz-adv-x="554" />
<glyph unicode="&#x20ac;" d="M205 428l28 127h91q12 98 45 215h-86l30 125h97q86 215 232 347t351 132q137 0 279 -35l47 -10l-33 -119q-152 31 -293 31t-246.5 -94t-175.5 -252h549l-28 -125h-566q-29 -90 -47 -215h563l-28 -127h-547v-53q0 -262 242 -262q129 0 274 26l45 8l-10 -124 q-174 -43 -330 -43q-377 0 -377 389v59h-106z" />
<glyph unicode="&#x2122;" horiz-adv-x="1431" d="M449 1188v102h409v-102h-135v-508h-113v508h-161zM922 678v612h145l137 -426l144 426h145v-612h-107v459l-137 -428h-88l-133 428v-459h-106z" />
<glyph unicode="&#x25fc;" horiz-adv-x="1024" d="M0 0v1024h1024v-1024h-1024z" />
</font>
</defs>
</svg>
